<svg width="1440" height="449" viewBox="0 0 1440 449" fill="none" xmlns="http://www.w3.org/2000/svg">
<path d="M1803.96 224.609C1803.96 239.722 1796.55 254.585 1782.22 269.062C1767.88 283.542 1746.68 297.559 1719.28 310.944C1664.49 337.711 1585.14 361.845 1487 382.123C1290.74 422.677 1019.57 447.767 720 447.767C420.434 447.767 149.258 422.677 -47.0007 382.123C-145.139 361.845 -224.489 337.711 -279.279 310.944C-306.677 297.559 -327.879 283.542 -342.219 269.062C-356.555 254.585 -363.962 239.722 -363.962 224.609C-363.962 209.496 -356.555 194.633 -342.219 180.156C-327.879 165.676 -306.677 151.659 -279.279 138.274C-224.489 111.507 -145.139 87.3731 -47.0007 67.0947C149.258 26.5412 420.434 1.45054 720 1.45054C1019.57 1.45054 1290.74 26.5412 1487 67.0947C1585.14 87.3731 1664.49 111.507 1719.28 138.274C1746.68 151.659 1767.88 165.676 1782.22 180.156C1796.55 194.633 1803.96 209.496 1803.96 224.609Z" stroke="url(#paint0_linear_1417_4559)" stroke-width="2.07589"/>
<defs>
<linearGradient id="paint0_linear_1417_4559" x1="720" y1="0.412598" x2="720" y2="448.805" gradientUnits="userSpaceOnUse">
<stop stop-color="#FFD8F0"/>
<stop offset="1" stop-color="#FFD8F0" stop-opacity="0"/>
</linearGradient>
</defs>
</svg>
