<svg width="716" height="147" viewBox="0 0 716 147" fill="none" xmlns="http://www.w3.org/2000/svg">
<path d="M714.015 73.5196C714.015 78.216 711.703 82.9118 707.064 87.5693C702.421 92.2297 695.52 96.7751 686.541 101.136C668.586 109.857 642.538 117.738 610.266 124.368C545.739 137.623 456.549 145.83 358 145.83C259.451 145.83 170.26 137.623 105.734 124.368C73.4618 117.738 47.4137 109.857 29.4588 101.136C20.4791 96.7751 13.5781 92.2297 8.93571 87.5693C4.29624 82.9118 1.98424 78.216 1.98424 73.5196C1.98424 68.8231 4.29624 64.1274 8.93571 59.4699C13.5781 54.8095 20.4791 50.2641 29.4588 45.9028C47.4137 37.1824 73.4618 29.3008 105.734 22.6713C170.26 9.4158 259.451 1.20933 358 1.20933C456.549 1.20933 545.739 9.4158 610.266 22.6713C642.538 29.3008 668.586 37.1824 686.541 45.9028C695.52 50.2641 702.421 54.8095 707.064 59.4699C711.703 64.1274 714.015 68.8231 714.015 73.5196Z" stroke="#FFD8F0" stroke-width="2.07589"/>
</svg>
