<svg width="1208" height="250" viewBox="0 0 1208 250" fill="none" xmlns="http://www.w3.org/2000/svg">
<path d="M1206.35 125.037C1206.35 133.271 1202.32 141.418 1194.4 149.409C1186.47 157.402 1174.73 165.162 1159.52 172.586C1129.1 187.433 1085.01 200.831 1030.45 212.094C921.348 234.615 770.574 248.553 604 248.553C437.426 248.553 286.652 234.615 177.547 212.094C122.986 200.831 78.9001 187.433 48.48 172.586C33.2678 165.162 21.5271 157.402 13.6031 149.409C5.68216 141.418 1.64512 133.271 1.64512 125.037C1.64512 116.804 5.68216 108.657 13.6031 100.666C21.5271 92.6729 33.2678 84.9125 48.48 77.4884C78.9001 62.6422 122.986 49.2439 177.547 37.9813C286.652 15.4596 437.426 1.52183 604 1.52183C770.574 1.52183 921.348 15.4596 1030.45 37.9813C1085.01 49.2439 1129.1 62.6422 1159.52 77.4884C1174.73 84.9125 1186.47 92.6729 1194.4 100.666C1202.32 108.657 1206.35 116.804 1206.35 125.037Z" stroke="#FFD8F0" stroke-width="2.07589"/>
</svg>
