<svg width="196" height="50" viewBox="0 0 196 50" fill="none" xmlns="http://www.w3.org/2000/svg">
<g clip-path="url(#clip0_1664_4030)">
<path d="M1.69141 15.175V34.732C1.69141 35.9308 2.38875 37.1296 3.39167 37.7251L20.3552 47.5036C21.4521 48.0991 22.7528 48.0991 23.8497 47.5036L40.8133 37.7251C41.9102 37.1296 42.5135 35.9308 42.5135 34.732V15.175C42.5135 13.9762 41.8162 12.7774 40.8133 12.1819L23.8419 2.4034C22.745 1.80792 21.4443 1.80792 20.3473 2.4034L3.38384 12.1819C2.28689 12.7774 1.69141 13.9762 1.69141 15.175Z" fill="#667085"/>
<path d="M25.8471 28.7435L23.4494 35.3331C23.3476 35.529 23.3476 35.7327 23.4494 35.9286L27.6413 47.3055L32.4287 44.5083L26.6384 28.7435C26.5444 28.3439 26.0429 28.3439 25.8471 28.7435Z" fill="white"/>
<path d="M30.6306 17.5673C30.5288 17.1677 30.0351 17.1677 29.8314 17.5673L27.4338 24.1568C27.332 24.3527 27.332 24.5564 27.4338 24.7523L34.2192 43.4161L39.0066 40.6188L30.6306 17.5673Z" fill="white"/>
<path d="M22.0548 3.09984C22.1567 3.09984 22.2507 3.09984 22.3525 3.2017L40.7107 13.7794C40.9066 13.8813 41.0085 14.0772 41.0085 14.3749V35.5303C41.0085 35.7262 40.9066 36.0318 40.7107 36.1258L22.3525 46.7035C22.2507 46.8054 22.1567 46.8054 22.0548 46.8054C21.9529 46.8054 21.8589 46.8054 21.7571 46.7035L3.39886 36.1258C3.20298 36.0239 3.10112 35.8281 3.10112 35.5303V14.3749C3.10112 14.179 3.20298 13.8734 3.39886 13.7794L21.7571 3.2017C21.8511 3.09984 21.9529 3.09984 22.0548 3.09984ZM22.0548 0.00488281C21.3575 0.00488281 20.7541 0.200766 20.1586 0.506345L1.80045 11.0841C0.601642 11.7814 -0.0957031 12.9802 -0.0957031 14.3749V35.5303C-0.0957031 36.831 0.601642 38.1238 1.80045 38.8212L20.1586 49.3989C20.7541 49.6966 21.3575 49.9003 22.0548 49.9003C22.7521 49.9003 23.3555 49.7044 23.951 49.3989L42.3092 38.8212C43.508 38.1238 44.2053 36.925 44.2053 35.5303V14.3749C44.2053 13.0742 43.508 11.7814 42.3092 11.0841L24.045 0.506345C23.4495 0.208602 22.8462 0.00488281 22.1488 0.00488281H22.0548Z" fill="#667085"/>
<path d="M9.98047 43.4123L11.6729 38.8208L15.0656 41.618L11.8766 44.6111L9.98047 43.4123Z" fill="#667085"/>
<path d="M20.5529 12.8796H15.8595C15.5618 12.8796 15.1622 13.0755 15.0603 13.3811L5.08594 40.7186L9.87333 43.5158L20.8506 13.4751C20.9525 13.1774 20.7488 12.8796 20.451 12.8796H20.5529Z" fill="white"/>
<path d="M28.6331 12.8804H23.9398C23.642 12.8804 23.2424 13.0763 23.1406 13.3819L11.7715 44.5117L16.5589 47.3089L28.9309 13.3819C29.0327 13.0841 28.829 12.7864 28.5313 12.7864L28.6331 12.8804Z" fill="white"/>
<path d="M63.964 18.5728C64.4655 18.5728 64.8651 18.6746 65.1628 18.8705C65.4605 19.0664 65.7583 19.466 66.0639 19.9674L72.1519 30.9448C72.2538 31.0466 72.2538 31.1406 72.1519 31.2425C72.1519 31.3444 72.0501 31.3444 71.8542 31.3444H69.5584C69.3625 31.3444 69.2607 31.2425 69.1588 31.1485L67.8503 28.7509H59.2706L57.97 31.1485C57.8681 31.3444 57.7741 31.3444 57.5704 31.3444H55.1727C54.9769 31.3444 54.875 31.3444 54.875 31.2425C54.875 31.1406 54.875 31.0466 54.875 30.9448L60.8612 19.9674C61.1589 19.372 61.4567 19.0664 61.7623 18.8705C62.0678 18.6746 62.3577 18.5728 62.7573 18.5728H63.8543H63.964ZM60.3676 26.6588H66.6515L63.7603 21.2681C63.6584 21.1663 63.6584 21.1663 63.5644 21.1663H63.4625C63.3607 21.1663 63.2666 21.1663 63.2666 21.2681L60.3676 26.6588Z" fill="#667085"/>
<path d="M85.4169 18.5728C86.8116 18.5728 87.8145 18.8705 88.41 19.5678C89.0055 20.1633 89.3111 21.1663 89.3111 22.3651V23.3601C89.3111 24.4571 89.1152 25.2563 88.7156 25.8518C88.316 26.4473 87.6186 26.8469 86.6236 27.0506L89.7185 30.9448C89.8204 31.0466 89.8204 31.1406 89.8204 31.2425C89.8204 31.3444 89.7185 31.4384 89.5226 31.4384H87.125C86.9291 31.4384 86.8273 31.4384 86.8273 31.3365C86.7254 31.3365 86.7254 31.2347 86.6314 31.1406L83.7402 27.3483H77.8558V31.0388C77.8558 31.3365 77.7539 31.4384 77.4562 31.4384H75.4582C75.1605 31.4384 75.0586 31.3365 75.0586 31.0388V19.1682C75.0586 18.7686 75.2545 18.5728 75.6541 18.5728H85.5344H85.4169ZM77.8323 25.1544H84.8136C85.4091 25.1544 85.9105 25.0526 86.1143 24.7548C86.412 24.4571 86.5139 24.0575 86.5139 23.556V22.7568C86.5139 22.1613 86.412 21.7617 86.1143 21.558C85.8165 21.2603 85.4169 21.1584 84.8136 21.1584H78.0282C77.8323 21.1584 77.8323 21.2603 77.8323 21.3543V25.1544Z" fill="#667085"/>
<path d="M104.675 18.5728C105.975 18.5728 106.869 18.8705 107.37 19.372C107.872 19.8734 108.169 20.6726 108.169 21.6677V22.5688C108.169 23.5639 107.77 24.3631 106.971 24.8645C107.77 25.366 108.271 26.1652 108.271 27.2621V28.3591C108.271 28.8606 108.169 29.2602 108.075 29.6598C107.981 30.0594 107.778 30.3571 107.574 30.6548C107.276 30.9526 106.978 31.1563 106.579 31.2503C106.179 31.3522 105.678 31.4462 105.082 31.4462H94.2068C93.8072 31.4462 93.6113 31.2503 93.6113 30.8507V19.1761C93.6113 18.7765 93.8072 18.5806 94.2068 18.5806H104.785H104.675V18.5728ZM96.3929 23.8616H103.876C104.471 23.8616 104.871 23.7597 105.074 23.5639C105.278 23.368 105.372 23.1643 105.372 22.7647V22.1692C105.372 21.7696 105.27 21.4718 105.074 21.37C104.879 21.1741 104.479 21.0722 104.079 21.0722H96.5966C96.4007 21.0722 96.4007 21.1741 96.4007 21.2681V23.8616H96.3929ZM96.3929 25.8596V28.555C96.3929 28.7509 96.4947 28.7509 96.5888 28.7509H104.072C104.573 28.7509 104.871 28.649 105.067 28.4531C105.262 28.2572 105.364 27.9517 105.364 27.6539V26.9566C105.364 26.557 105.262 26.2592 105.067 26.0555C104.871 25.8518 104.471 25.7578 103.766 25.7578H96.291L96.3929 25.8596Z" fill="#667085"/>
<path d="M115.05 18.5728C115.348 18.5728 115.45 18.6746 115.45 18.9724V30.9448C115.45 31.2425 115.348 31.3444 115.05 31.3444H113.052C112.754 31.3444 112.652 31.2425 112.652 30.9448V18.9724C112.652 18.6746 112.754 18.5728 113.052 18.5728H115.05Z" fill="#667085"/>
<path d="M134.309 18.5728C134.606 18.5728 134.708 18.6746 134.708 18.9724V20.7666C134.708 21.0644 134.606 21.1663 134.309 21.1663H128.518V30.9448C128.518 31.2425 128.417 31.3444 128.119 31.3444H126.121C125.823 31.3444 125.721 31.2425 125.721 30.9448V21.1663H119.931C119.633 21.1663 119.531 21.0644 119.531 20.7666V18.9724C119.531 18.6746 119.633 18.5728 119.931 18.5728H134.199H134.309Z" fill="#667085"/>
<path d="M148.782 18.5728C150.177 18.5728 151.18 18.8705 151.775 19.5678C152.371 20.1633 152.676 21.1663 152.676 22.3651V23.3601C152.676 24.4571 152.48 25.2563 152.081 25.8518C151.681 26.4473 150.984 26.8469 149.989 27.0506L153.084 30.9448C153.186 31.0466 153.186 31.1406 153.186 31.2425C153.186 31.3444 153.084 31.4384 152.888 31.4384H150.49C150.294 31.4384 150.193 31.4384 150.193 31.3365C150.091 31.3365 150.091 31.2347 149.997 31.1406L147.105 27.3483H141.221V31.0388C141.221 31.3365 141.119 31.4384 140.821 31.4384H138.823C138.526 31.4384 138.424 31.3365 138.424 31.0388V19.1682C138.424 18.7686 138.62 18.5728 139.019 18.5728H148.9H148.782ZM141.198 25.1544H148.179C148.774 25.1544 149.276 25.0526 149.479 24.7548C149.777 24.4571 149.879 24.0575 149.879 23.556V22.7568C149.879 22.1613 149.777 21.7617 149.479 21.558C149.182 21.2603 148.782 21.1584 148.179 21.1584H141.393C141.198 21.1584 141.198 21.2603 141.198 21.3543V25.1544Z" fill="#667085"/>
<path d="M159.06 18.5728C159.358 18.5728 159.46 18.6746 159.46 18.9724V26.2592C159.46 26.7607 159.46 27.1603 159.562 27.458C159.664 27.7558 159.758 28.0535 159.961 28.2572C160.165 28.461 160.361 28.555 160.659 28.6568C160.956 28.7587 161.356 28.7587 161.858 28.7587H166.95C167.452 28.7587 167.852 28.7587 168.149 28.6568C168.447 28.555 168.745 28.461 168.847 28.2572C169.043 28.0614 169.144 27.7558 169.246 27.458C169.348 27.1603 169.348 26.7607 169.348 26.2592V18.9724C169.348 18.6746 169.45 18.5728 169.748 18.5728H171.746C172.043 18.5728 172.145 18.6746 172.145 18.9724V26.557C172.145 27.458 172.043 28.1554 171.848 28.7509C171.652 29.3463 171.346 29.8478 170.947 30.2474C170.547 30.647 170.045 30.9448 169.348 31.0466C168.651 31.2425 167.953 31.3444 166.95 31.3444H161.662C160.761 31.3444 159.961 31.2425 159.264 31.0466C158.669 30.8507 158.065 30.5452 157.666 30.2474C157.266 29.8478 156.968 29.3463 156.765 28.7509C156.569 28.1554 156.467 27.3562 156.467 26.557V18.9724C156.467 18.6746 156.569 18.5728 156.866 18.5728H158.864H159.06Z" fill="#667085"/>
<path d="M180.01 18.5728C180.308 18.5728 180.512 18.5728 180.708 18.6746C180.903 18.6746 181.107 18.7765 181.209 18.8705C181.311 18.9724 181.507 19.0664 181.609 19.2701C181.71 19.466 181.804 19.6697 182.008 19.9674L185.801 28.7509C185.902 28.8527 185.902 28.9467 186.098 28.9467H186.294C186.396 28.9467 186.49 28.8449 186.592 28.7509L190.384 19.9674C190.486 19.6697 190.58 19.466 190.784 19.2701C190.886 19.0742 190.98 18.9724 191.183 18.8705C191.285 18.7686 191.481 18.6746 191.685 18.6746C191.889 18.6746 192.084 18.5728 192.382 18.5728H194.38C194.976 18.5728 195.477 18.6746 195.681 18.9724C195.877 19.2701 195.979 19.7716 195.979 20.4689V30.9448C195.979 31.2425 195.877 31.3444 195.579 31.3444H193.683C193.385 31.3444 193.283 31.2425 193.283 30.9448V21.37C193.283 21.2681 193.181 21.1741 193.181 21.1741H192.986C192.884 21.1741 192.79 21.2759 192.79 21.2759L189.099 29.456C188.997 29.7538 188.801 30.0515 188.598 30.2552C188.394 30.459 188.3 30.6549 188.096 30.8507C187.9 30.9526 187.697 31.1485 187.501 31.1485C187.305 31.2503 186.999 31.2503 186.702 31.2503H185.801C185.503 31.2503 185.205 31.2503 185.001 31.1485C184.798 31.0466 184.602 30.9526 184.406 30.8507C184.21 30.7489 184.108 30.553 183.904 30.2552C183.708 30.0594 183.607 29.7538 183.403 29.456L179.712 21.2759C179.712 21.1741 179.611 21.1741 179.517 21.1741H179.321C179.219 21.1741 179.219 21.2759 179.219 21.37V30.9526C179.219 31.2503 179.117 31.3522 178.819 31.3522H176.915C176.617 31.3522 176.516 31.2503 176.516 30.9526V20.4689C176.516 19.7716 176.617 19.2701 176.813 18.9724C177.009 18.6746 177.511 18.5728 178.114 18.5728H180.112H180.01Z" fill="#667085"/>
</g>
<defs>
<clipPath id="clip0_1664_4030">
<rect width="195.884" height="49.9111" fill="white"/>
</clipPath>
</defs>
</svg>
