<svg width="236" height="50" viewBox="0 0 236 50" fill="none" xmlns="http://www.w3.org/2000/svg">
<g clip-path="url(#clip0_1664_4005)">
<path d="M48.5485 14.2539L28.0293 0.546875V8.21053L41.1926 16.9252L39.6441 21.9175H28.0293V28.2674H39.6441L41.1926 33.2598L28.0293 41.9744V49.6382L48.5485 35.975L45.1931 25.1144L48.5485 14.2539Z" fill="url(#paint0_linear_1664_4005)"/>
<path d="M10.1761 28.2674H21.7477V21.9175H10.1331L8.62747 16.9252L21.7477 8.21053V0.546875L1.22852 14.2539L4.58387 25.1144L1.22852 35.975L21.7907 49.6382V41.9744L8.62747 33.2598L10.1761 28.2674Z" fill="#667085"/>
<mask id="mask0_1664_4005" style="mask-type:alpha" maskUnits="userSpaceOnUse" x="1" y="0" width="48" height="50">
<path d="M48.5505 14.251L28.0312 0.543945V8.2076L41.1946 16.9223L39.646 21.9146H28.0312V28.2644H39.646L41.1946 33.2568L28.0312 41.9714V49.6353L48.5505 35.972L45.1953 25.1115L48.5505 14.251Z" fill="url(#paint1_linear_1664_4005)"/>
<path d="M10.178 28.2644H21.7497V21.9146H10.135L8.62944 16.9223L21.7497 8.2076V0.543945L1.23047 14.251L4.58581 25.1115L1.23047 35.972L21.7927 49.6353V41.9714L8.62944 33.2568L10.178 28.2644Z" fill="url(#paint2_linear_1664_4005)"/>
</mask>
<g mask="url(#mask0_1664_4005)">
<path d="M48.2435 0.543945H1.26367V49.6353H48.2435V0.543945Z" fill="#667085"/>
</g>
<path d="M89.3759 14.0471V18.3389H69.9626V22.7305H86.4574V27.0222H69.9626V31.8463H89.3759V36.1382H64.9824V14.0471H89.3759Z" fill="#667085"/>
<path d="M92.1289 36.1382L103.282 24.9595L92.445 14.0471H99.3013L106.948 21.932L114.278 14.0471H120.692L109.886 24.9595L121.04 36.1382H114.12L106.948 28.0204L98.7642 36.1382H92.1289Z" fill="#667085"/>
<path d="M134.413 14.0471C143.449 14.0471 148.883 18.6574 148.883 25.0926C148.883 31.5279 143.449 36.1382 134.413 36.1382C125.376 36.1382 119.973 31.5279 119.973 25.0926C119.973 18.6574 125.376 14.0471 134.413 14.0471ZM134.413 18.1772C128.978 18.1772 124.972 20.9626 124.972 25.0926C124.972 29.2227 128.978 32.0082 134.413 32.0082C139.878 32.0082 143.884 29.2227 143.884 25.0926C143.884 20.9626 139.878 18.1772 134.413 18.1772Z" fill="#667085"/>
<path d="M166.888 14.0471C174.126 14.0471 178.487 18.1393 178.487 25.0594C178.487 32.0459 174.158 36.1382 166.952 36.1382H152.287V14.0471H166.888ZM173.367 25.0594C173.367 20.7343 170.839 18.3389 166.256 18.3389H157.249V31.8463H166.256C170.839 31.8463 173.367 29.4178 173.367 25.0594Z" fill="#667085"/>
<path d="M194.907 36.1382C187.286 36.1382 181.506 32.614 181.506 26.1204V14.0471H186.492V25.631C186.492 29.6447 190.588 31.5047 194.907 31.5047C199.258 31.5047 203.354 29.6772 203.354 25.631V14.0471H208.308V26.1204C208.308 32.614 202.561 36.1382 194.907 36.1382Z" fill="#667085"/>
<path d="M222.263 36.1382C218.168 36.1382 213.754 35.3698 210.619 33.9292L212.25 29.8309C215.065 31.1437 218.936 31.9761 222.423 31.9761C226.421 31.9761 230.164 31.1116 230.164 29.5749C230.164 28.4543 228.98 27.974 226.517 27.5898L219.544 26.8214C214.17 26.085 211.547 24.1962 211.547 20.8665C211.547 16.5764 215.993 14.0471 222.519 14.0471C226.453 14.0471 231.859 14.7835 234.642 16.0641L233.01 19.9701C230.26 18.8175 225.589 18.2412 222.295 18.2412C218.904 18.2412 216.665 19.0416 216.665 20.5144C216.665 21.5389 217.784 22.0511 220.663 22.4673L227.445 23.2357C232.627 23.9721 235.314 25.7649 235.314 29.2547C235.314 33.6729 229.62 36.1382 222.263 36.1382Z" fill="#667085"/>
</g>
<defs>
<linearGradient id="paint0_linear_1664_4005" x1="41.9107" y1="53.0132" x2="27.6736" y2="-4.72293" gradientUnits="userSpaceOnUse">
<stop stop-color="#0B46F9"/>
<stop offset="1" stop-color="#BBFBE0"/>
</linearGradient>
<linearGradient id="paint1_linear_1664_4005" x1="41.9126" y1="53.0103" x2="27.6756" y2="-4.72586" gradientUnits="userSpaceOnUse">
<stop stop-color="#0B46F9"/>
<stop offset="1" stop-color="#BBFBE0"/>
</linearGradient>
<linearGradient id="paint2_linear_1664_4005" x1="41.9115" y1="53.0103" x2="27.6744" y2="-4.72586" gradientUnits="userSpaceOnUse">
<stop stop-color="#0B46F9"/>
<stop offset="1" stop-color="#BBFBE0"/>
</linearGradient>
<clipPath id="clip0_1664_4005">
<rect width="234.661" height="49.2498" fill="white" transform="translate(0.654297 0.54541)"/>
</clipPath>
</defs>
</svg>
