<svg width="190" height="50" viewBox="0 0 190 50" fill="none" xmlns="http://www.w3.org/2000/svg">
<path d="M29.6858 14.3064C29.6818 14.9719 29.0649 15.4425 28.398 15.3729C26.7446 15.2004 25.2298 15.2147 23.8137 15.361C20.7311 15.6794 18.1694 16.6222 15.8077 17.4914L15.8025 17.4933C15.6596 17.5459 15.5174 17.5982 15.3758 17.6501C12.8681 18.5697 10.5574 19.3609 7.81586 19.4236C6.72225 19.4487 5.54385 19.3575 4.24659 19.0987C3.13364 18.8767 2.24469 18.0344 2.02412 16.9296C1.84947 16.0541 1.75781 15.149 1.75781 14.2226C1.75781 6.56994 8.00985 0.366211 15.7219 0.366211C23.4342 0.366211 29.686 6.56994 29.686 14.2226C29.686 14.2506 29.686 14.2785 29.6858 14.3064Z" fill="#667085"/>
<path d="M3.00261 21.193C1.95392 20.943 0.997099 22.0612 1.51338 23.0006L15.2202 47.9359C15.4408 48.3373 16.0213 48.3373 16.2419 47.9359L31.3705 20.4139C31.9072 19.4377 31.3909 18.215 30.292 17.9971C27.9014 17.5232 25.8646 17.4723 24.0517 17.6595C21.2702 17.9469 18.9599 18.796 16.5618 19.6776C16.4347 19.7242 16.3074 19.771 16.1799 19.8179C13.6692 20.7386 11.0344 21.6615 7.86654 21.7339C6.36099 21.7684 4.75733 21.6112 3.00261 21.193Z" fill="#667085"/>
<path d="M15.7285 20.4657C15.7285 20.1765 15.9104 19.9181 16.1838 19.8179C16.3115 19.771 16.4388 19.7242 16.5659 19.6776C18.964 18.796 21.2743 17.9469 24.0558 17.6595C25.8687 17.4723 27.9055 17.5232 30.2961 17.9971C31.395 18.215 31.9112 19.4377 31.3746 20.4139L16.2458 47.936C16.1344 48.1388 15.931 48.2391 15.7285 48.2369V20.4657Z" fill="#667085"/>
<path fill-rule="evenodd" clip-rule="evenodd" d="M65.1471 8.47987C63.3584 7.97359 61.6965 7.72046 60.0346 7.72046C56.9667 7.72046 54.1546 8.47987 51.5988 9.74547C49.0423 11.1376 47.1251 13.036 45.719 15.5672C44.313 18.0984 43.6738 20.8828 43.6738 24.1733C43.6738 27.4639 44.4409 30.2481 45.8469 32.7794C47.2524 35.3105 49.2976 37.209 51.7261 38.6012C54.1546 39.9934 56.8378 40.7527 59.9077 40.7527C62.7178 40.7527 65.274 40.2465 67.5765 38.9809C69.8769 37.8418 71.6657 36.0701 73.0717 33.6652C74.4777 31.2606 75.1163 28.4763 75.1163 25.1857V23.7937C75.1163 23.617 75.1163 23.4127 75.1163 23.1939L75.1183 22.9314C75.1183 22.6388 74.8786 22.4015 74.5825 22.4015H61.3339C61.0378 22.4015 60.7981 22.6388 60.7981 22.9314V27.5666C60.7981 27.8594 61.0378 28.0968 61.3339 28.0968H67.3811C67.5986 28.0968 67.7658 28.2889 67.7275 28.5011C67.6006 29.1846 67.4214 29.8053 67.1917 30.3748C66.6801 31.767 65.7857 32.6528 64.5086 33.4121C63.3584 34.045 61.8234 34.4247 59.9077 34.4247C58.3728 34.4247 56.8378 33.9185 55.5607 33.1592C54.1547 32.2732 53.1313 31.1341 52.3651 29.6154C51.5988 28.0968 51.2149 26.3248 51.2149 24.2999C51.2149 22.2748 51.5988 20.5031 52.3651 18.9843C53.1313 17.4656 54.1547 16.2 55.5607 15.4407C56.9667 14.5547 58.5017 14.1751 60.1615 14.1751C61.6965 14.1751 63.2294 14.5548 64.5086 15.1875C65.6447 15.75 66.6801 16.7124 67.5241 17.897C67.6973 18.1415 68.0378 18.2119 68.2875 18.0433L73.0435 14.833C73.2751 14.6762 73.3456 14.3676 73.1926 14.1342C72.3203 12.8009 71.15 11.6755 69.8769 10.7579C68.3419 9.74547 66.9359 8.98605 65.1471 8.47987ZM106.085 9.50448L111.79 8.01697C112.129 7.92845 112.461 8.18194 112.461 8.52952V39.7163C112.461 40.0091 112.221 40.2463 111.925 40.2463H106.222C105.926 40.2463 105.687 40.0091 105.687 39.7163V10.017C105.687 9.7763 105.852 9.56579 106.085 9.50448ZM173.372 22.6544C174.266 22.1482 175.16 21.8951 176.184 21.8951C177.334 21.8951 178.228 22.2748 178.996 22.6544C179.761 23.0342 180.402 23.7935 180.912 24.8059C181.423 25.8184 181.679 26.9575 181.679 28.3497C181.679 29.7419 181.423 30.8808 180.912 31.8934C180.529 32.9059 179.89 33.6652 178.996 34.1714C178.228 34.6777 177.205 34.9308 176.184 34.9308C175.16 34.9308 174.137 34.6777 173.372 34.1714C172.604 33.6652 171.966 32.9059 171.454 31.8934C170.942 30.8808 170.687 29.7419 170.687 28.3497C170.687 26.9575 170.942 25.8184 171.454 24.8059C171.837 23.9201 172.477 23.1606 173.372 22.6544ZM182.573 17.4655C180.785 16.453 178.611 15.9468 176.184 15.9468C173.883 15.9468 171.71 16.453 169.792 17.4655C167.874 18.478 166.468 19.9967 165.318 21.8951C164.168 23.7935 163.656 25.945 163.656 28.3497C163.656 30.7543 164.297 32.9059 165.318 34.8043C166.342 36.7027 167.874 38.2214 169.792 39.2339C171.71 40.2463 173.883 40.7525 176.184 40.7525C178.484 40.7525 180.656 40.2463 182.573 39.2339C184.491 38.2214 185.897 36.7027 187.047 34.8043C188.198 32.9059 188.709 30.7543 188.709 28.3497C188.709 25.945 188.071 23.7935 187.047 21.8951C186.024 19.9967 184.491 18.478 182.573 17.4655ZM134.196 37.8339C134.246 37.7537 134.393 37.7906 134.393 37.8851V39.7165C134.393 40.0093 134.631 40.2465 134.927 40.2465H140.632C140.926 40.2465 141.166 40.0093 141.166 39.7165V17.2364C141.166 16.9437 140.926 16.7064 140.632 16.7064H134.927C134.631 16.7064 134.393 16.9437 134.393 17.2364V19.2735C134.393 19.4474 134.16 19.5204 134.053 19.3824C133.694 18.9204 133.296 18.4912 132.859 18.0985C131.452 16.7064 129.535 16.0736 127.234 16.0736C125.19 16.0736 123.401 16.5799 121.739 17.719C120.204 18.7314 118.927 20.2501 118.033 22.1486C117.136 24.047 116.754 26.1983 116.754 28.4765C116.754 30.7545 117.136 32.9061 118.033 34.8045C118.927 36.7029 120.077 38.0952 121.739 39.2343C123.272 40.3732 125.19 40.8794 127.234 40.8794C129.664 40.8794 131.452 40.12 132.985 39.1076C133.572 38.7212 133.974 38.1827 134.196 37.8339ZM131.835 34.0452C130.941 34.5514 130.046 34.8045 129.023 34.8045C128.002 34.8045 127.107 34.5514 126.211 34.0452C125.446 33.539 124.807 32.7796 124.295 31.7672C123.911 30.7545 123.655 29.6156 123.655 28.3499C123.655 27.0843 123.784 26.0719 124.295 25.0592C124.807 24.1735 125.446 23.4141 126.211 22.9079C127.107 22.4017 128.002 22.1486 129.023 22.1486C130.046 22.1486 131.07 22.4017 131.835 22.9079C132.603 23.4141 133.241 24.0468 133.753 25.0592C134.138 25.9452 134.393 27.0843 134.393 28.3499C134.393 29.6156 134.265 30.7545 133.753 31.7672C133.241 32.7796 132.603 33.539 131.835 34.0452ZM156.04 21.8953C155.943 21.8953 155.863 21.9742 155.863 22.072V31.1341C155.863 33.2856 156.757 34.4245 158.546 34.4245H160.568C160.864 34.4245 161.102 34.6619 161.102 34.9547V39.7163C161.102 40.0091 160.864 40.2465 160.568 40.2465H157.651C154.968 40.2465 152.795 39.487 151.389 37.9683C149.856 36.4496 149.088 34.2981 149.088 31.5137V22.072C149.088 21.9742 149.008 21.8953 148.909 21.8953H144.955C144.588 21.8953 144.33 21.5382 144.447 21.1944L145.867 17.0654C145.942 16.8506 146.145 16.7062 146.375 16.7062H148.909C149.008 16.7062 149.088 16.6271 149.088 16.5295V10.1938C149.088 9.95304 149.252 9.74253 149.487 9.68122L155.416 8.13533C155.641 8.07631 155.863 8.24531 155.863 8.47702V16.5295C155.863 16.6271 155.943 16.7062 156.04 16.7062H160.711C161.08 16.7062 161.338 17.0632 161.219 17.407L159.799 21.536C159.726 21.7509 159.521 21.8953 159.293 21.8953H156.04ZM90.1456 15.9468C92.446 15.9468 94.3637 16.453 96.0256 17.4655C97.6854 18.478 99.0914 19.9967 99.9878 21.8951C101.009 23.7935 101.394 25.945 101.394 28.3497V29.4651C101.394 29.7577 101.154 29.995 100.858 29.995H85.6878C85.4722 29.995 85.305 30.1843 85.3413 30.3955C85.4541 31.029 85.6112 31.5853 85.7986 32.0199C86.3102 33.0323 86.9508 33.7919 87.7162 34.1714C88.4837 34.5512 89.507 34.9308 90.7841 34.9308C91.9344 34.9308 93.0846 34.6777 93.852 34.2981C94.5913 33.9841 95.244 33.4111 95.808 32.7216C96.0014 32.4844 96.3539 32.4356 96.5936 32.6278L100.481 35.7483C100.705 35.9279 100.745 36.2512 100.564 36.4718C99.4742 37.791 98.1648 38.796 96.5352 39.487C94.7464 40.2463 92.8287 40.6261 90.7841 40.6261C88.3548 40.6261 86.1833 40.1198 84.2656 39.1072C82.3479 38.0948 80.9419 36.5761 79.9206 34.6777C78.8973 32.7792 78.3856 30.6279 78.3856 28.223C78.3856 25.8184 78.8973 23.667 79.9206 21.7686C80.9419 19.8702 82.3479 18.478 84.1367 17.339C85.9275 16.453 87.8452 15.9468 90.1456 15.9468ZM85.8388 25.5655C85.6132 25.5655 85.444 25.3612 85.4984 25.1448C85.722 24.2343 86.0483 23.4887 86.4371 22.9075C87.2046 21.7684 88.4837 21.1357 90.1456 21.1357C91.6785 21.1357 92.9577 21.7684 93.7231 22.9075C94.1059 23.4752 94.4241 24.2311 94.6477 25.1442C94.7021 25.361 94.5309 25.5655 94.3073 25.5655H85.8388Z" fill="#667085"/>
</svg>
