<svg width="203" height="51" viewBox="0 0 203 51" fill="none" xmlns="http://www.w3.org/2000/svg">
<path d="M65.1866 0.998779V14.3684H60.6516V0.998779H56.1165V14.3684H51.5815V0.998779H47.0465V14.3684H24.3474V0.998779H19.8123V14.3684V18.8223H65.1866V23.2762H60.6516H56.1165H15.2693V0.998779H10.7343V23.2841H6.19129V0.998779H1.65625V23.2841V27.738V50.0233H6.19129V36.6537H10.7263V50.0233H15.2614V36.6537H19.7964V50.0233H24.3314V36.6537H47.0225V50.0233H51.5576V36.6537V32.1997H15.2693H10.7343H6.19129V27.7458H10.7263H15.2614H56.1006V50.0311H60.6356V27.738H65.1707V50.0233H69.7216V27.738V23.2841V18.8301V14.3762V0.998779H65.1866Z" fill="#667085"/>
<path d="M90.1678 19.0037V23.761H79.2578V19.0037H75.6211V32.1045H79.2578V27.3472H90.1678V32.1045H93.8045V19.0037H90.1678Z" fill="#667085"/>
<path d="M159.262 27.3469H155.625V32.1042H159.262V27.3469Z" fill="#667085"/>
<path d="M159.267 19.0037H155.631V23.761H144.721V19.0037H141.084V32.1045H144.721V27.3472H155.631L159.267 23.7756V19.0037Z" fill="#667085"/>
<path d="M113.19 19.0037H97.4355V32.1045H101.072V27.3472H111.982V32.1045H115.619V19.0037H113.19ZM101.072 23.7756V22.5899H111.982V23.7756H101.072Z" fill="#667085"/>
<path d="M137.443 22.5753V19.0037H122.896H121.689H119.26V32.1045H121.689H122.896H137.443V28.5329H122.896V22.5753H137.443Z" fill="#667085"/>
<path d="M181.09 22.5753V19.0037H166.543H165.336H162.906V32.1045H165.336H166.543H181.09V28.5329H166.543V27.3472H181.09V23.7756H166.543V22.5899H181.09V22.5753Z" fill="#667085"/>
<path d="M199.267 19.0037V27.3326L188.357 19.0037H184.721V32.1045H188.357V23.7756L199.267 32.1045H202.904V19.0037H199.267Z" fill="#667085"/>
</svg>
