<svg width="88" height="77" viewBox="0 0 88 77" fill="none" xmlns="http://www.w3.org/2000/svg">
<path d="M13.7321 15.5204L77.1338 56.5828L73.7997 61.7307C72.5982 63.5858 70.5967 64.8407 67.9399 65.489C65.2794 66.1382 61.9901 66.1705 58.2799 65.5964C50.8607 64.4483 41.8534 60.8902 33.0421 55.1835C24.2309 49.4769 17.3031 42.7079 13.2226 36.4048C11.182 33.2527 9.86648 30.2371 9.37021 27.5446C8.87458 24.8556 9.19983 22.5184 10.398 20.6684L13.7321 15.5204Z" fill="url(#paint0_linear_94_4412)" stroke="url(#paint1_linear_94_4412)"/>
<mask id="path-2-inside-1_94_4412" fill="white">
<path d="M13.5419 14.8015L13.9656 15.0759L10.7289 20.0735C5.57238 28.0354 15.808 43.8082 33.5209 55.2801C47.4624 64.3093 61.9119 68.0034 69.9672 65.3175C62.0963 68.5544 47.1355 64.9069 32.7279 55.5757C14.9727 44.0764 4.77943 28.331 9.93597 20.3691L13.5419 14.8015Z"/>
</mask>
<path d="M13.5419 14.8015L13.9656 15.0759L10.7289 20.0735C5.57238 28.0354 15.808 43.8082 33.5209 55.2801C47.4624 64.3093 61.9119 68.0034 69.9672 65.3175C62.0963 68.5544 47.1355 64.9069 32.7279 55.5757C14.9727 44.0764 4.77943 28.331 9.93597 20.3691L13.5419 14.8015Z" fill="url(#paint2_linear_94_4412)"/>
<path d="M13.9656 15.0759L14.805 15.6196L15.3486 14.7802L14.5092 14.2366L13.9656 15.0759ZM69.9672 65.3175L70.3475 66.2423L69.6509 64.3688L69.9672 65.3175ZM12.9983 15.6408L13.422 15.9153L14.5092 14.2366L14.0855 13.9622L12.9983 15.6408ZM13.1263 14.5323L9.88959 19.5299L11.5683 20.6171L14.805 15.6196L13.1263 14.5323ZM9.88959 19.5299C8.42504 21.7912 8.09681 24.5477 8.6404 27.5012C9.18266 30.4475 10.5996 33.6474 12.7096 36.9043C16.931 43.4201 24.0306 50.3251 32.9773 56.1194L34.0645 54.4407C25.2983 48.7633 18.4237 42.0458 14.3881 35.8168C12.3697 32.7013 11.0875 29.7481 10.6074 27.1392C10.1285 24.5375 10.4545 22.3367 11.5683 20.6171L9.88959 19.5299ZM32.9773 56.1194C40.0237 60.6831 47.216 63.9106 53.6909 65.6574C60.1381 67.3969 65.9881 67.6984 70.2835 66.2661L69.6509 64.3688C65.891 65.6225 60.4885 65.4199 54.2118 63.7265C47.9627 62.0405 40.9595 58.9064 34.0645 54.4407L32.9773 56.1194ZM69.5868 64.3926C65.9436 65.891 60.4878 65.843 54.0473 64.191C47.6412 62.5478 40.3977 59.3517 33.2715 54.7364L32.1843 56.415C39.4657 61.1309 46.9065 64.4241 53.5504 66.1283C60.1599 67.8236 66.12 67.9809 70.3475 66.2423L69.5868 64.3926ZM33.2715 54.7364C24.4839 49.045 17.6095 42.3276 13.5795 36.1024C9.49315 29.7903 8.54493 24.3565 10.7753 20.9127L9.09663 19.8255C6.17047 24.3436 7.74059 30.7634 11.9006 37.1893C16.1168 43.7021 23.2167 50.6071 32.1843 56.415L33.2715 54.7364ZM10.7753 20.9127L14.3812 15.3451L12.7025 14.2579L9.09663 19.8255L10.7753 20.9127Z" fill="url(#paint3_linear_94_4412)" mask="url(#path-2-inside-1_94_4412)"/>
<path d="M22.0432 19.2284L12.2593 34.3351" stroke="url(#paint4_linear_94_4412)" stroke-width="2" stroke-miterlimit="10" stroke-linecap="round" stroke-linejoin="round"/>
<path d="M30.0943 24.4429L18.4028 42.4949" stroke="url(#paint5_linear_94_4412)" stroke-width="2" stroke-miterlimit="10" stroke-linecap="round" stroke-linejoin="round"/>
<path d="M38.1455 29.6574L25.4941 49.1915" stroke="url(#paint6_linear_94_4412)" stroke-width="2" stroke-miterlimit="10" stroke-linecap="round" stroke-linejoin="round"/>
<path d="M46.1543 34.8444L33.2075 54.8346" stroke="url(#paint7_linear_94_4412)" stroke-width="2" stroke-miterlimit="10" stroke-linecap="round" stroke-linejoin="round"/>
<path d="M54.2056 40.0589L41.5542 59.593" stroke="url(#paint8_linear_94_4412)" stroke-width="2" stroke-miterlimit="10" stroke-linecap="round" stroke-linejoin="round"/>
<path d="M62.2149 45.2459L50.5234 63.2979" stroke="url(#paint9_linear_94_4412)" stroke-width="2" stroke-miterlimit="10" stroke-linecap="round" stroke-linejoin="round"/>
<path d="M70.2658 50.4603L60.4819 65.567" stroke="url(#paint10_linear_94_4412)" stroke-width="2" stroke-miterlimit="10" stroke-linecap="round" stroke-linejoin="round"/>
<path d="M54.7192 21.6206C63.5439 27.3359 70.4736 34.1019 74.5516 40.4013C76.591 43.5514 77.9042 46.5648 78.398 49.2564C78.8912 51.9443 78.5636 54.2822 77.3632 56.1357C76.1628 57.9891 74.1634 59.2442 71.5088 59.8935C68.8507 60.5437 65.5638 60.5777 61.855 60.0051C54.4388 58.8601 45.4304 55.3038 36.6057 49.5884C27.781 43.873 20.8513 37.107 16.7732 30.8077C14.7339 27.6575 13.4207 24.6441 12.9268 21.9526C12.4336 19.2646 12.7612 16.9267 13.9616 15.0733C15.162 13.2198 17.1614 11.9647 19.816 11.3154C22.4741 10.6653 25.7611 10.6312 29.4698 11.2038C36.8861 12.3488 45.8945 15.9052 54.7192 21.6206Z" fill="#A423C8" stroke="url(#paint11_linear_94_4412)"/>
<path d="M18.1378 32.7965C17.6499 32.1292 17.1922 31.4653 16.7657 30.8065C12.661 24.466 11.5573 18.7857 13.9616 15.0733C14.0411 14.9506 14.1241 14.8304 14.2107 14.7129C11.6325 18.9546 13.0673 25.0332 17.143 31.3288C17.4583 31.8159 17.79 32.3053 18.1378 32.7965Z" fill="url(#paint12_linear_94_4412)" stroke="url(#paint13_linear_94_4412)"/>
<path d="M52.1472 25.5919C58.5263 29.7234 63.5297 34.6109 66.4705 39.1535C67.9413 41.4254 68.8831 43.5909 69.2365 45.517C69.5893 47.4396 69.3522 49.0946 68.507 50.3997C67.6617 51.7048 66.2484 52.598 64.3497 53.0624C62.4475 53.5277 60.0862 53.5539 57.4115 53.1409C52.0634 52.3152 45.557 49.7483 39.1779 45.6169C32.7989 41.4854 27.7954 36.5979 24.8546 32.0553C23.3839 29.7835 22.442 27.618 22.0886 25.6918C21.7358 23.7693 21.9729 22.1143 22.8182 20.8091C23.6635 19.504 25.0767 18.6108 26.9754 18.1464C28.8777 17.6811 31.239 17.6549 33.9136 18.0679C39.2617 18.8936 45.7681 21.4605 52.1472 25.5919Z" fill="url(#paint14_linear_94_4412)" stroke="url(#paint15_linear_94_4412)"/>
<path d="M52.1469 25.592C58.5216 29.7206 63.5244 34.6091 66.466 39.1529C67.9372 41.4254 68.8798 43.5916 69.234 45.5181C69.5847 47.4256 69.3549 49.0692 68.5269 50.3683C68.6356 47.4003 67.1828 43.8729 64.6322 40.3064C61.5393 35.9818 56.7525 31.4833 50.8199 27.641C44.8872 23.7987 38.8244 21.2704 33.613 20.2167C29.3153 19.3478 25.5022 19.4648 22.8383 20.7779C23.6851 19.4909 25.091 18.6091 26.9751 18.1489C28.878 17.6842 31.2402 17.6585 33.9156 18.0715C39.2652 18.8974 45.7722 21.4634 52.1469 25.592Z" fill="url(#paint16_linear_94_4412)" stroke="url(#paint17_linear_94_4412)"/>
<path d="M33.9996 18.1178C31.3851 17.7142 29.0009 17.7064 26.9972 18.1369C28.8954 17.6788 31.2503 17.6562 33.9168 18.0692C35.9607 18.3857 38.1737 18.956 40.484 19.7703C38.2138 18.986 36.0308 18.4314 33.9996 18.1178Z" fill="url(#paint18_linear_94_4412)" stroke="url(#paint19_linear_94_4412)"/>
<defs>
<linearGradient id="paint0_linear_94_4412" x1="0.607422" y1="34.7727" x2="16.495" y2="12.4383" gradientUnits="userSpaceOnUse">
<stop stop-color="#F328A5"/>
<stop offset="1" stop-color="#9322D0"/>
</linearGradient>
<linearGradient id="paint1_linear_94_4412" x1="-13.46" y1="19.3264" x2="94.8378" y2="18.27" gradientUnits="userSpaceOnUse">
<stop stop-color="#9021CC"/>
<stop offset="1" stop-color="#431068"/>
</linearGradient>
<linearGradient id="paint2_linear_94_4412" x1="-4.79528" y1="22.2924" x2="87.548" y2="22.0446" gradientUnits="userSpaceOnUse">
<stop stop-color="#FFE6C5"/>
<stop offset="0.0726269" stop-color="#FFE4C0"/>
<stop offset="0.1597" stop-color="#FFDFB1"/>
<stop offset="0.2543" stop-color="#FFD699"/>
<stop offset="0.3534" stop-color="#FFCA78"/>
<stop offset="0.4489" stop-color="#FFBC50"/>
<stop offset="0.5466" stop-color="#FEB74D"/>
<stop offset="0.6677" stop-color="#FAA745"/>
<stop offset="0.8012" stop-color="#F48E37"/>
<stop offset="0.9426" stop-color="#EC6B25"/>
<stop offset="1" stop-color="#E85B1C"/>
</linearGradient>
<linearGradient id="paint3_linear_94_4412" x1="-13.0688" y1="19.5798" x2="93.4777" y2="19.6797" gradientUnits="userSpaceOnUse">
<stop stop-color="#9021CC"/>
<stop offset="1" stop-color="#431068"/>
</linearGradient>
<linearGradient id="paint4_linear_94_4412" x1="14.2244" y1="30.8156" x2="15.6579" y2="31.7209" gradientUnits="userSpaceOnUse">
<stop stop-color="#9021CC"/>
<stop offset="1" stop-color="#431068"/>
</linearGradient>
<linearGradient id="paint5_linear_94_4412" x1="20.7943" y1="38.3171" x2="22.2261" y2="39.2252" gradientUnits="userSpaceOnUse">
<stop stop-color="#9021CC"/>
<stop offset="1" stop-color="#431068"/>
</linearGradient>
<linearGradient id="paint6_linear_94_4412" x1="28.1001" y1="44.6825" x2="29.5313" y2="45.5916" gradientUnits="userSpaceOnUse">
<stop stop-color="#9021CC"/>
<stop offset="1" stop-color="#431068"/>
</linearGradient>
<linearGradient id="paint7_linear_94_4412" x1="35.8795" y1="50.2237" x2="37.3105" y2="51.1331" gradientUnits="userSpaceOnUse">
<stop stop-color="#9021CC"/>
<stop offset="1" stop-color="#431068"/>
</linearGradient>
<linearGradient id="paint8_linear_94_4412" x1="44.1602" y1="55.084" x2="45.5914" y2="55.9931" gradientUnits="userSpaceOnUse">
<stop stop-color="#9021CC"/>
<stop offset="1" stop-color="#431068"/>
</linearGradient>
<linearGradient id="paint9_linear_94_4412" x1="52.9149" y1="59.1201" x2="54.3467" y2="60.0281" gradientUnits="userSpaceOnUse">
<stop stop-color="#9021CC"/>
<stop offset="1" stop-color="#431068"/>
</linearGradient>
<linearGradient id="paint10_linear_94_4412" x1="62.4471" y1="62.0475" x2="63.8806" y2="62.9529" gradientUnits="userSpaceOnUse">
<stop stop-color="#9021CC"/>
<stop offset="1" stop-color="#431068"/>
</linearGradient>
<linearGradient id="paint11_linear_94_4412" x1="-8.56398" y1="11.7913" x2="108.171" y2="28.8306" gradientUnits="userSpaceOnUse">
<stop stop-color="#9021CC"/>
<stop offset="1" stop-color="#431068"/>
</linearGradient>
<linearGradient id="paint12_linear_94_4412" x1="11.3458" y1="24.661" x2="56.4026" y2="10.4972" gradientUnits="userSpaceOnUse">
<stop stop-color="#FFE6C5"/>
<stop offset="0.4489" stop-color="#FFBC50"/>
<stop offset="0.5466" stop-color="#FEB74D"/>
<stop offset="0.6677" stop-color="#FAA745"/>
<stop offset="0.8012" stop-color="#F48E37"/>
<stop offset="0.9426" stop-color="#EC6B25"/>
<stop offset="1" stop-color="#E85B1C"/>
</linearGradient>
<linearGradient id="paint13_linear_94_4412" x1="-8.1417" y1="14.0059" x2="97.0107" y2="22.6344" gradientUnits="userSpaceOnUse">
<stop stop-color="#9021CC"/>
<stop offset="1" stop-color="#431068"/>
</linearGradient>
<linearGradient id="paint14_linear_94_4412" x1="15.6421" y1="30.9695" x2="32.6694" y2="7.98428" gradientUnits="userSpaceOnUse">
<stop stop-color="#F328A5"/>
<stop offset="1" stop-color="#9322D0"/>
</linearGradient>
<linearGradient id="paint15_linear_94_4412" x1="6.38777" y1="18.3572" x2="90.9359" y2="30.6982" gradientUnits="userSpaceOnUse">
<stop stop-color="#9021CC"/>
<stop offset="1" stop-color="#431068"/>
</linearGradient>
<linearGradient id="paint16_linear_94_4412" x1="94.4659" y1="67.4682" x2="67.5259" y2="-56.7455" gradientUnits="userSpaceOnUse">
<stop stop-color="#F328A5"/>
<stop offset="1" stop-color="#F38AB8"/>
</linearGradient>
<linearGradient id="paint17_linear_94_4412" x1="10.9076" y1="11.3779" x2="83.7259" y2="3.83584" gradientUnits="userSpaceOnUse">
<stop stop-color="#9021CC"/>
<stop offset="1" stop-color="#431068"/>
</linearGradient>
<linearGradient id="paint18_linear_94_4412" x1="-0.750231" y1="13.6536" x2="53.0842" y2="-2.24202" gradientUnits="userSpaceOnUse">
<stop offset="0.2481" stop-color="#FFE6C5"/>
<stop offset="0.7529" stop-color="#FFBC50"/>
<stop offset="0.7967" stop-color="#FEB74D"/>
<stop offset="0.851" stop-color="#FAA745"/>
<stop offset="0.9109" stop-color="#F48E37"/>
<stop offset="0.9743" stop-color="#EC6B25"/>
<stop offset="1" stop-color="#E85B1C"/>
</linearGradient>
<linearGradient id="paint19_linear_94_4412" x1="11.0512" y1="11.4501" x2="83.3722" y2="4.29429" gradientUnits="userSpaceOnUse">
<stop stop-color="#9021CC"/>
<stop offset="1" stop-color="#431068"/>
</linearGradient>
</defs>
</svg>
