<svg width="184" height="50" viewBox="0 0 184 50" fill="none" xmlns="http://www.w3.org/2000/svg">
<path d="M14.9445 0.000744966C13.1031 0.0107796 11.2839 0.392095 9.5851 1.12211C7.88877 1.85464 6.34732 2.92082 5.05418 4.26295C3.75858 5.60508 2.73586 7.19557 2.04012 8.9441C1.34438 10.6926 0.990366 12.5641 1.0002 14.4531V19.2271H12.3312V12.3107C12.3312 11.9871 12.3926 11.6635 12.5156 11.365C12.636 11.0639 12.813 10.793 13.0392 10.5622C13.2629 10.3314 13.5285 10.1508 13.821 10.0253C14.1136 9.89989 14.4258 9.83718 14.7429 9.83718H15.151C15.4682 9.83718 15.7804 9.89989 16.0729 10.0253C16.3655 10.1508 16.631 10.3314 16.8547 10.5622C17.0784 10.793 17.2555 11.0639 17.3784 11.365C17.4988 11.666 17.5628 11.9871 17.5628 12.3107V30.8522C19.0501 30.8522 20.5252 30.5511 21.8995 29.9666C23.2737 29.3821 24.5226 28.5267 25.5748 27.4479C26.6271 26.3692 27.4605 25.0873 28.0308 23.6774C28.6012 22.2676 28.8937 20.7548 28.8937 19.2296V14.4556C28.9011 10.6299 27.4334 6.95474 24.8103 4.23786C23.522 2.89573 21.988 1.83206 20.2941 1.10455C18.5953 0.372024 16.7785 -0.00176369 14.9445 0.000744966Z" fill="#667085"/>
<path d="M15.1477 40.2344H14.7396C14.4225 40.2344 14.1102 40.1692 13.8177 40.0463C13.5251 39.9209 13.2596 39.7402 13.0359 39.5094C12.8122 39.2786 12.6352 39.0077 12.5123 38.7067C12.3918 38.4056 12.3279 38.0845 12.3279 37.7609V19.2194C10.8405 19.2194 9.36544 19.5205 7.99117 20.105C6.6169 20.6895 5.36801 21.545 4.31579 22.6237C3.26357 23.7024 2.43016 24.9843 1.8598 26.3942C1.28944 27.8041 0.996886 29.3168 0.996886 30.842V35.5483C0.977219 37.4398 1.32386 39.3163 2.01714 41.0673C2.71042 42.8209 3.73314 44.4139 5.0312 45.7585C6.3268 47.1031 7.8707 48.1693 9.57195 48.8968C11.2732 49.6243 13.0974 50.0006 14.9412 50.0006C16.785 50.0006 18.6092 49.6269 20.3104 48.8968C22.0117 48.1693 23.5556 47.1006 24.8512 45.7585C26.1468 44.4139 27.172 42.8209 27.8653 41.0673C28.5585 39.3138 28.9052 37.4373 28.8855 35.5483V30.842H17.5545V37.7584C17.5545 38.082 17.4931 38.4056 17.3701 38.7042C17.2497 39.0052 17.0702 39.2761 16.8465 39.5069C16.6228 39.7377 16.3573 39.9184 16.0647 40.0438C15.7771 40.1717 15.4648 40.2344 15.1477 40.2344ZM48.2556 14.6763H44.2852V35.3451H55.9407V31.4491H48.2581C48.2556 31.4491 48.2556 14.6763 48.2556 14.6763ZM68.6558 22.3327C68.0953 21.6177 67.3774 21.0508 66.5637 20.677C65.7475 20.3032 64.8575 20.1326 63.9651 20.1777C63.0334 20.1702 62.109 20.3684 61.2584 20.7572C60.4077 21.1461 59.6481 21.7206 59.0285 22.4355C57.7034 23.9583 56.9708 25.9301 56.9708 27.9721C56.9708 30.0142 57.7034 31.986 59.0285 33.5087C59.6456 34.2262 60.4053 34.7982 61.2584 35.187C62.109 35.5759 63.0334 35.7741 63.9651 35.7665C65.981 35.7665 67.5446 35.0491 68.6558 33.6116V35.3526H72.3681V20.5892H68.6558V22.3327ZM67.52 30.9675C67.1463 31.3513 66.6989 31.6548 66.2048 31.853C65.7131 32.0537 65.1845 32.149 64.6559 32.1315C64.1274 32.149 63.6037 32.0537 63.112 31.853C62.6228 31.6523 62.1778 31.3488 61.8066 30.965C61.0838 30.1421 60.6831 29.076 60.6831 27.9671C60.6831 26.8608 61.0838 25.7921 61.8066 24.9693C62.1778 24.5855 62.6228 24.2819 63.112 24.0812C63.6013 23.8805 64.1274 23.7852 64.6559 23.8028C65.1845 23.7877 65.7131 23.883 66.2048 24.0812C66.6964 24.2819 67.1439 24.5829 67.52 24.9668C68.2502 25.7846 68.6558 26.8533 68.6558 27.9646C68.6558 29.081 68.2526 30.1497 67.52 30.9675ZM81.9339 30.5009L78.1798 20.5791H74.1209L80.0188 34.8709C79.7729 35.7239 79.2861 36.484 78.6224 37.056C77.9242 37.5402 77.0883 37.7709 76.2475 37.7057V41.2505C77.8848 41.406 79.5246 40.9494 80.862 39.9635C82.0962 39.0077 83.0894 37.4749 83.8367 35.3677L89.0831 20.5791H85.1127L81.9339 30.5009ZM97.1197 20.1727C96.1068 20.1351 95.0989 20.3157 94.1573 20.6996C93.2157 21.0834 92.3626 21.6629 91.6521 22.4029C90.2779 23.9182 89.5182 25.9125 89.5231 27.9822C89.528 30.0518 90.3 32.0412 91.6816 33.5489C93.1198 35.024 95.03 35.764 97.4098 35.764C100.171 35.764 102.263 34.7104 103.684 32.6056L100.692 30.8345C100.311 31.3312 99.8191 31.7226 99.2586 31.981C98.6981 32.2394 98.0834 32.3523 97.4688 32.3121C95.2611 32.3121 93.909 31.3864 93.4099 29.5375H104.259C104.352 29.0208 104.399 28.4965 104.402 27.9721C104.456 25.915 103.718 23.9207 102.344 22.4205C101.678 21.6855 100.869 21.106 99.9691 20.7196C99.0693 20.3333 98.0957 20.1451 97.1197 20.1727ZM93.3509 26.5798C93.5156 25.7118 93.9729 24.9317 94.6465 24.3797C95.3595 23.8379 96.2347 23.5619 97.1222 23.597C97.9335 23.587 98.7276 23.8454 99.3815 24.3346C100.08 24.8865 100.547 25.6868 100.692 26.5773C100.689 26.5798 93.3509 26.5798 93.3509 26.5798ZM110.705 23.1204V20.5816H106.993V35.3451H110.705V28.2882C110.705 26.8708 111.15 25.8573 112.043 25.2477C112.935 24.6381 114.017 24.3848 115.079 24.5403V20.2906C114.144 20.2781 113.225 20.5239 112.416 20.9981C111.617 21.4697 111.01 22.2248 110.705 23.1204ZM133.178 17.8723V14.6763H119.973V18.5747H128.148L119.762 32.0913V35.3451H133.34V31.4491H124.792C124.792 31.4466 133.178 17.8723 133.178 17.8723ZM142.102 20.1727C141.089 20.1351 140.081 20.3157 139.14 20.6996C138.198 21.0834 137.345 21.6629 136.634 22.4029C135.26 23.9182 134.498 25.9125 134.505 27.9822C134.51 30.0518 135.282 32.0412 136.664 33.5489C138.102 35.024 140.012 35.764 142.39 35.764C145.153 35.764 147.243 34.7104 148.664 32.6056L145.672 30.8345C145.291 31.3287 144.799 31.7226 144.238 31.981C143.678 32.2394 143.063 32.3523 142.449 32.3121C140.241 32.3121 138.889 31.3864 138.39 29.5375H149.239C149.332 29.0208 149.379 28.4965 149.381 27.9721C149.438 25.915 148.698 23.9207 147.324 22.4205C146.66 21.6855 145.849 21.106 144.949 20.7196C144.049 20.3333 143.078 20.1451 142.102 20.1727ZM138.333 26.5798C138.498 25.7118 138.955 24.9317 139.629 24.3797C140.342 23.8379 141.217 23.5619 142.104 23.597C142.916 23.587 143.71 23.8454 144.364 24.3346C145.062 24.8865 145.529 25.6868 145.672 26.5773L138.333 26.5798ZM155.685 23.1204V20.5816H151.973V35.3451H155.685V28.2882C155.685 26.8708 156.13 25.8573 157.022 25.2477C157.915 24.6381 158.996 24.3848 160.058 24.5403V20.2906C159.127 20.2781 158.205 20.5239 157.396 20.9981C156.597 21.4697 155.99 22.2248 155.685 23.1204ZM168.525 20.1702C166.782 20.1903 165.101 20.8275 163.766 21.9739C162.431 23.1204 161.521 24.7084 161.197 26.4644C160.872 28.2205 161.148 30.0368 161.981 31.6072C162.814 33.1776 164.149 34.4043 165.762 35.0767C167.375 35.7515 169.167 35.8293 170.831 35.3024C172.496 34.7756 173.929 33.6718 174.893 32.1842C175.856 30.694 176.284 28.9079 176.11 27.1317C175.933 25.3531 175.163 23.6924 173.931 22.4305C173.228 21.693 172.385 21.1135 171.453 20.7246C170.529 20.3358 169.531 20.1476 168.525 20.1702ZM171.316 30.8897C170.952 31.266 170.517 31.5645 170.035 31.7602C169.555 31.9584 169.042 32.0537 168.523 32.0387C168.007 32.0537 167.493 31.9584 167.016 31.7627C166.539 31.5645 166.104 31.2685 165.742 30.8897C165.029 30.092 164.634 29.0484 164.634 27.9671C164.634 26.8859 165.029 25.8423 165.742 25.0445C166.104 24.6657 166.536 24.3697 167.016 24.1715C167.493 23.9733 168.007 23.878 168.523 23.8931C169.039 23.878 169.553 23.9733 170.035 24.1715C170.517 24.3697 170.952 24.6657 171.316 25.042C172.036 25.8348 172.439 26.8809 172.439 27.9646C172.439 29.0509 172.038 30.0945 171.316 30.8897ZM183.937 30.8019H179.419V35.3501H183.937V30.8019Z" fill="#667085"/>
</svg>
