<svg width="178" height="160" viewBox="0 0 178 160" fill="none" xmlns="http://www.w3.org/2000/svg">
<path d="M48.4487 139.914L122.057 16.1478L131.589 21.5566C145.221 29.2914 139.751 63.2886 119.469 97.3916C99.1866 131.495 71.6278 152.957 58.0292 145.241L48.4972 139.832L48.4487 139.914Z" fill="url(#paint0_linear_104_6)"/>
<path d="M48.4487 139.906L48.9343 139.09L57.497 143.947C71.1387 151.685 98.686 130.195 118.984 96.0788C134.96 69.2265 141.72 42.4953 137.279 28.5146C142.677 42.0562 135.985 69.6989 119.475 97.449C99.1285 131.647 71.6298 153.055 57.9881 145.317L48.4487 139.906V139.906Z" fill="url(#paint1_linear_104_6)"/>
<path d="M55.7451 121.589L84.2727 138.06" stroke="#FFCF8A" stroke-width="1.7442" stroke-miterlimit="10" stroke-linecap="round" stroke-linejoin="round"/>
<path d="M64.5233 106.385L98.6129 126.067" stroke="#FFCF8A" stroke-width="1.7442" stroke-miterlimit="10" stroke-linecap="round" stroke-linejoin="round"/>
<path d="M73.3014 91.1809L110.19 112.479" stroke="#FFCF8A" stroke-width="1.7442" stroke-miterlimit="10" stroke-linecap="round" stroke-linejoin="round"/>
<path d="M82.0336 76.0567L119.783 97.8516" stroke="#FFCF8A" stroke-width="1.7442" stroke-miterlimit="10" stroke-linecap="round" stroke-linejoin="round"/>
<path d="M90.8117 60.8523L127.7 82.1499" stroke="#FFCF8A" stroke-width="1.7442" stroke-miterlimit="10" stroke-linecap="round" stroke-linejoin="round"/>
<path d="M99.5435 45.7285L133.633 65.4102" stroke="#FFCF8A" stroke-width="1.7442" stroke-miterlimit="10" stroke-linecap="round" stroke-linejoin="round"/>
<path d="M108.322 30.5242L136.849 46.9946" stroke="#FFCF8A" stroke-width="1.7442" stroke-miterlimit="10" stroke-linecap="round" stroke-linejoin="round"/>
<path d="M120.714 14.613C106.921 6.83206 79.0639 28.4045 58.494 62.7964C37.924 97.1883 32.4305 131.376 46.2238 139.157C60.0171 146.938 87.874 125.365 108.444 90.9736C129.014 56.5817 134.507 22.3939 120.714 14.613Z" fill="url(#paint2_linear_104_6)"/>
<path d="M108.956 88.9787C121.514 67.9328 128.396 47.0724 128.75 32.1585C129.1 47.1417 122.155 69.0619 108.962 91.1724C88.488 125.485 60.8163 146.965 47.0882 139.201C41.7805 136.2 39.3252 129.226 39.5464 119.822C39.715 128.132 42.2008 134.247 47.0826 137.008C60.8107 144.771 88.4823 123.291 108.956 88.9787Z" fill="url(#paint3_linear_104_6)"/>
<path d="M110.445 31.7829C100.454 26.1473 80.2783 41.7717 65.3801 66.6809C50.4818 91.59 46.503 116.351 56.4931 121.987C66.4832 127.622 86.6593 111.998 101.558 87.0889C116.456 62.1797 120.435 37.4184 110.445 31.7829Z" fill="url(#paint4_linear_104_6)"/>
<path d="M64.8793 66.2337C79.4911 41.5881 99.3073 26.1065 109.103 31.6832C109.944 32.1618 110.656 32.7846 111.319 33.4887C100.903 31.5841 83.1997 46.4192 69.7934 69.0312C56.3872 91.6433 52.0038 114.061 58.8516 121.985C57.8987 121.769 56.994 121.471 56.1534 120.993C46.3575 115.416 50.2675 90.8792 64.8793 66.2337Z" fill="url(#paint5_linear_104_6)"/>
<path d="M64.8869 66.2245C77.6217 44.7483 94.2972 30.1938 104.858 30.5471C94.2528 31.8006 78.7223 45.81 66.6629 66.1473C52.0469 90.7962 48.1359 115.336 57.9346 120.914C57.9993 120.951 58.0639 120.987 58.1286 121.024C58.3555 121.371 58.5983 121.618 58.8253 121.965C57.8721 121.749 56.9671 121.451 56.1263 120.973C46.3599 115.414 50.271 90.8734 64.8869 66.2245Z" fill="url(#paint6_linear_104_6)"/>
<defs>
<linearGradient id="paint0_linear_104_6" x1="59.4734" y1="174.705" x2="41.8191" y2="21.2679" gradientUnits="userSpaceOnUse">
<stop stop-color="#FFD89F"/>
<stop offset="0.4489" stop-color="#FFBC50"/>
<stop offset="0.5466" stop-color="#FEB74D"/>
<stop offset="0.6677" stop-color="#FAA745"/>
<stop offset="0.8012" stop-color="#F48E37"/>
<stop offset="0.9426" stop-color="#EC6B25"/>
<stop offset="1" stop-color="#E85B1C"/>
</linearGradient>
<linearGradient id="paint1_linear_104_6" x1="60.9389" y1="171.465" x2="42.0978" y2="7.65354" gradientUnits="userSpaceOnUse">
<stop stop-color="#FFE6C5"/>
<stop offset="0.0726269" stop-color="#FFE4C0"/>
<stop offset="0.1597" stop-color="#FFDFB1"/>
<stop offset="0.2543" stop-color="#FFD699"/>
<stop offset="0.3534" stop-color="#FFCA78"/>
<stop offset="0.4489" stop-color="#FFBC50"/>
<stop offset="0.5466" stop-color="#FEB74D"/>
<stop offset="0.6677" stop-color="#FAA745"/>
<stop offset="0.8012" stop-color="#F48E37"/>
<stop offset="0.9426" stop-color="#EC6B25"/>
<stop offset="1" stop-color="#E85B1C"/>
</linearGradient>
<linearGradient id="paint2_linear_104_6" x1="56.7407" y1="155.681" x2="12.8964" y2="54.9004" gradientUnits="userSpaceOnUse">
<stop stop-color="#FFD89F"/>
<stop offset="0.4489" stop-color="#FFBC50"/>
<stop offset="0.5466" stop-color="#FEB74D"/>
<stop offset="0.6677" stop-color="#FAA745"/>
<stop offset="0.8012" stop-color="#F48E37"/>
<stop offset="0.9426" stop-color="#EC6B25"/>
<stop offset="1" stop-color="#E85B1C"/>
</linearGradient>
<linearGradient id="paint3_linear_104_6" x1="64.1956" y1="141.247" x2="31.6313" y2="66.5719" gradientUnits="userSpaceOnUse">
<stop stop-color="#FFE6C5"/>
<stop offset="0.4489" stop-color="#FFBC50"/>
<stop offset="0.5466" stop-color="#FEB74D"/>
<stop offset="0.6677" stop-color="#FAA745"/>
<stop offset="0.8012" stop-color="#F48E37"/>
<stop offset="0.9426" stop-color="#EC6B25"/>
<stop offset="1" stop-color="#E85B1C"/>
</linearGradient>
<linearGradient id="paint4_linear_104_6" x1="49.7537" y1="166.158" x2="3.97435" y2="30.4701" gradientUnits="userSpaceOnUse">
<stop stop-color="#FFD89F"/>
<stop offset="0.0160918" stop-color="#FFD391"/>
<stop offset="0.0517382" stop-color="#FFCB7A"/>
<stop offset="0.092301" stop-color="#FFC467"/>
<stop offset="0.14" stop-color="#FFBF5A"/>
<stop offset="0.2016" stop-color="#FFBD52"/>
<stop offset="0.3271" stop-color="#FFBC50"/>
<stop offset="0.4296" stop-color="#FAA946"/>
<stop offset="0.6829" stop-color="#F07F2F"/>
<stop offset="0.8817" stop-color="#EA6521"/>
<stop offset="1" stop-color="#E85B1C"/>
</linearGradient>
<linearGradient id="paint5_linear_104_6" x1="48.1042" y1="162.027" x2="10.8881" y2="73.2407" gradientUnits="userSpaceOnUse">
<stop stop-color="#FFD89F"/>
<stop offset="0.0805635" stop-color="#FFCE84"/>
<stop offset="0.1705" stop-color="#FFC66D"/>
<stop offset="0.2678" stop-color="#FFC05D"/>
<stop offset="0.3767" stop-color="#FFBD53"/>
<stop offset="0.521" stop-color="#FFBC50"/>
<stop offset="0.6059" stop-color="#FEB74D"/>
<stop offset="0.7112" stop-color="#FAA745"/>
<stop offset="0.8272" stop-color="#F48E37"/>
<stop offset="0.9501" stop-color="#EC6B25"/>
<stop offset="1" stop-color="#E85B1C"/>
</linearGradient>
<linearGradient id="paint6_linear_104_6" x1="43.7407" y1="163.861" x2="6.52349" y2="75.0585" gradientUnits="userSpaceOnUse">
<stop offset="0.2481" stop-color="#FFE6C5"/>
<stop offset="0.7529" stop-color="#FFBC50"/>
<stop offset="0.7967" stop-color="#FEB74D"/>
<stop offset="0.851" stop-color="#FAA745"/>
<stop offset="0.9109" stop-color="#F48E37"/>
<stop offset="0.9743" stop-color="#EC6B25"/>
<stop offset="1" stop-color="#E85B1C"/>
</linearGradient>
</defs>
</svg>
