<svg width="136" height="159" viewBox="0 0 136 159" fill="none" xmlns="http://www.w3.org/2000/svg">
<path d="M111.915 36.2777L131.628 113.998C132.451 117.243 130.37 120.481 127.028 121.274L28.7515 144.6C25.4098 145.394 22.0059 143.417 21.1926 140.21L1.47947 62.4903C1.15614 61.2156 1.30507 59.9516 1.78482 58.8139C2.49955 57.088 4.06634 55.6923 6.07937 55.2145L104.356 31.8878C106.369 31.41 108.426 31.9457 109.885 33.1555C110.885 33.901 111.591 35.003 111.915 36.2777Z" fill="url(#paint0_linear_69_2)"/>
<path d="M109.925 33.146L1.78425 58.814C2.49898 57.0881 4.06577 55.6923 6.07881 55.2145L104.355 31.8878C106.368 31.41 108.425 31.9457 109.925 33.146Z" fill="url(#paint1_linear_69_2)"/>
<path d="M111.913 36.2776L131.627 113.998C132.45 117.243 130.368 120.48 127.027 121.274L62.9314 136.487C59.5898 137.28 56.1858 135.303 55.3726 132.097L35.6594 54.3771C35.3361 53.1023 35.485 51.8384 35.9648 50.7006C36.7198 48.9652 38.2463 47.579 40.2593 47.1012L104.354 31.8877C104.556 31.84 104.797 31.7826 105.008 31.7735C105.089 31.7544 105.129 31.7448 105.21 31.7257C105.29 31.7066 105.331 31.697 105.381 31.7261C105.461 31.707 105.511 31.736 105.592 31.7169C105.883 31.6887 106.235 31.7281 106.536 31.7385C106.627 31.758 106.717 31.7775 106.797 31.7584L106.838 31.7488C106.928 31.7683 106.968 31.7588 107.059 31.7783C107.149 31.7978 107.239 31.8173 107.33 31.8369C107.42 31.8564 107.51 31.8759 107.651 31.9245C107.791 31.9731 107.921 31.983 108.022 32.0412C108.122 32.0993 108.252 32.1093 108.352 32.1674C108.453 32.2256 108.543 32.2451 108.683 32.2937C108.783 32.3518 108.874 32.3713 108.934 32.439C109.274 32.6039 109.584 32.817 109.864 33.0782C110.884 33.901 111.59 35.0029 111.913 36.2776Z" fill="url(#paint2_linear_69_2)"/>
<path d="M69.7026 127.507C66.0388 128.377 62.3345 126.225 61.4429 122.71L45.5313 59.9779C44.6397 56.4627 46.8939 52.8971 50.5577 52.0275L99.0719 40.5123C102.736 39.6426 106.44 41.794 107.332 45.3092L123.253 108.08C124.145 111.595 121.89 115.161 118.227 116.031L69.7124 127.546L69.7026 127.507Z" fill="url(#paint3_linear_69_2)"/>
<path d="M63.0539 122.329L47.1423 59.5964C46.4172 56.7379 48.2352 53.8082 51.2548 53.0915L99.769 41.5763C102.748 40.8691 105.792 42.6039 106.527 45.501L122.448 108.272C123.173 111.131 121.355 114.06 118.336 114.777L69.8216 126.292C66.7923 126.97 63.7888 125.226 63.0539 122.329Z" fill="url(#paint4_linear_69_2)"/>
<path d="M53.9302 86.1997C51.5402 86.758 49.1391 85.3065 48.5501 83.021L45.7348 72.0972C45.1358 69.773 46.6085 67.4576 48.9586 66.9086C51.3088 66.3596 53.7498 67.8017 54.3388 70.0872L57.1441 80.9723C57.7431 83.2966 56.2804 85.6506 53.9302 86.1997Z" fill="url(#paint5_linear_69_2)"/>
<path d="M53.7279 85.4231C51.7777 85.879 49.8265 84.6927 49.3477 82.8339L46.5348 71.9132C46.0461 70.0157 47.2491 68.1333 49.1595 67.6867C51.1097 67.2309 53.0609 68.4171 53.5397 70.276L56.3426 81.1579C56.8314 83.0555 55.6781 84.9673 53.7279 85.4231Z" fill="url(#paint6_linear_69_2)"/>
<path d="M61.2394 115.017C58.8494 115.575 56.4481 114.124 55.8591 111.838L53.0538 100.953C52.4548 98.6288 53.9275 96.3134 56.2777 95.7644C58.6279 95.2154 61.069 96.6576 61.658 98.9431L64.4633 109.828C65.0623 112.152 63.5896 114.468 61.2394 115.017Z" fill="url(#paint7_linear_69_2)"/>
<path d="M61.037 114.24C59.0868 114.696 57.1356 113.509 56.6568 111.65L53.8538 100.768C53.365 98.8709 54.568 96.9885 56.4785 96.542C58.4287 96.0861 60.3799 97.2724 60.8587 99.1312L63.6617 110.013C64.1505 111.911 62.9873 113.784 61.037 114.24Z" fill="url(#paint8_linear_69_2)"/>
<path d="M87.3218 68.0012L94.7845 96.9255L91.9506 97.5868C83.7281 99.5055 75.3916 94.5859 73.3309 86.5987C71.2702 78.6116 76.2654 70.5812 84.4879 68.6625L87.3218 68.0012V68.0012Z" fill="url(#paint9_linear_69_2)"/>
<path d="M94.8732 96.9013C103.119 94.9787 108.128 86.932 106.061 78.9285C103.995 70.925 95.6352 65.9954 87.3896 67.918C79.1439 69.8406 74.1348 77.8873 76.2013 85.8908C78.2678 93.8943 86.6275 98.8239 94.8732 96.9013Z" fill="url(#paint10_linear_69_2)"/>
<path d="M97.0176 79.3868C97.615 81.6806 96.5401 84.0311 94.4937 85.0812L95.3747 88.4635C95.5671 89.2021 95.1222 89.9232 94.3663 90.0979C93.6104 90.2727 92.8617 89.8275 92.6693 89.0888L91.7883 85.7065C89.4482 85.6291 87.3505 84.0531 86.7531 81.7594C86.0342 78.9991 87.7544 76.2109 90.5791 75.558C93.4038 74.9051 96.2986 76.6266 97.0176 79.3868Z" fill="url(#paint11_linear_69_2)"/>
<path d="M97.0284 79.375C97.623 81.6635 96.5532 84.0087 94.5166 85.0564L95.3934 88.431C95.5848 89.1679 95.1421 89.8874 94.3898 90.0617C93.9147 90.1718 93.4583 90.0308 93.13 89.7368C93.2279 89.4674 93.2466 89.2163 93.1761 88.9448L92.2993 85.5702C94.3259 84.4837 95.4057 82.1773 94.8112 79.8888C94.1864 77.4839 91.9698 75.9002 89.5424 75.9281C89.8786 75.768 90.2644 75.6374 90.6208 75.5549C93.432 74.9034 96.3129 76.621 97.0284 79.375Z" fill="url(#paint12_linear_69_2)"/>
<path d="M38.5898 142.249L28.7104 144.553L31.5874 155.696L41.4668 153.392L38.5898 142.249Z" fill="url(#paint13_linear_69_2)"/>
<path d="M38.5625 142.259L33.6634 143.403L36.5283 154.52L41.4274 153.376L38.5625 142.259Z" fill="url(#paint14_linear_69_2)"/>
<path d="M72.7324 134.145L62.853 136.449L65.73 147.592L75.6094 145.288L72.7324 134.145Z" fill="url(#paint15_linear_69_2)"/>
<path d="M126.765 121.32L116.886 123.624L119.763 134.767L129.642 132.463L126.765 121.32Z" fill="url(#paint16_linear_69_2)"/>
<path d="M72.7048 134.155L67.8057 135.299L70.6706 146.416L75.5697 145.272L72.7048 134.155Z" fill="url(#paint17_linear_69_2)"/>
<path d="M126.739 121.329L121.84 122.474L124.705 133.591L129.604 132.447L126.739 121.329Z" fill="url(#paint18_linear_69_2)"/>
<path d="M109.925 33.1457L35.9258 50.71C36.6808 48.9745 38.2074 47.5883 40.2204 47.1105L104.316 31.897C104.517 31.8493 104.758 31.7919 104.97 31.7828C105.05 31.7637 105.09 31.7541 105.171 31.735C105.251 31.7159 105.292 31.7063 105.342 31.7354C105.422 31.7163 105.472 31.7454 105.553 31.7262C105.844 31.698 106.196 31.7374 106.497 31.7478C106.588 31.7673 106.678 31.7868 106.758 31.7677L106.799 31.7581C106.889 31.7777 106.929 31.7681 107.02 31.7876C107.11 31.8071 107.2 31.8266 107.291 31.8462C107.381 31.8657 107.471 31.8852 107.612 31.9338C107.752 31.9824 107.883 31.9923 107.983 32.0505C108.083 32.1086 108.213 32.1186 108.313 32.1767C108.414 32.2349 108.504 32.2544 108.644 32.303C108.744 32.3611 108.835 32.3806 108.895 32.4483C109.295 32.6809 109.605 32.894 109.925 33.1457Z" fill="url(#paint19_linear_69_2)"/>
<path d="M98.6726 35.177L100.535 43.5265L109.232 45.3533L100.53 47.1661L98.642 55.5208L96.7392 47.1714L88.0431 45.3829L96.7447 43.5318L98.6726 35.177Z" fill="white"/>
<path d="M67.8369 1.40392e-07L70.7143 12.8859L84.0609 15.7232L70.7143 18.5013L67.8369 31.3872L64.8981 18.5013L51.5516 15.7232L64.8981 12.8859L67.8369 1.40392e-07Z" fill="url(#paint20_linear_69_2)"/>
<defs>
<linearGradient id="paint0_linear_69_2" x1="14.7645" y1="56.5658" x2="113.877" y2="122.529" gradientUnits="userSpaceOnUse">
<stop stop-color="#DCF4FF"/>
<stop offset="0.1726" stop-color="#A7DCF9"/>
<stop offset="0.5174" stop-color="#979AFD"/>
<stop offset="0.8351" stop-color="#7F5FE3"/>
<stop offset="1" stop-color="#7545D7"/>
</linearGradient>
<linearGradient id="paint1_linear_69_2" x1="31.0855" y1="32.6965" x2="137.096" y2="94.3108" gradientUnits="userSpaceOnUse">
<stop stop-color="#EEFBFF"/>
<stop offset="0.2381" stop-color="#A7DCF9"/>
<stop offset="0.5174" stop-color="#979AFD"/>
<stop offset="0.6751" stop-color="#7A67EA"/>
<stop offset="0.8959" stop-color="#5526D2"/>
<stop offset="1" stop-color="#460CC9"/>
</linearGradient>
<linearGradient id="paint2_linear_69_2" x1="37.0933" y1="80.9203" x2="125.836" y2="88.0293" gradientUnits="userSpaceOnUse">
<stop stop-color="#DCF4FF"/>
<stop offset="0.1726" stop-color="#A7DCF9"/>
<stop offset="0.5174" stop-color="#979AFD"/>
<stop offset="0.8351" stop-color="#7F5FE3"/>
<stop offset="1" stop-color="#7545D7"/>
</linearGradient>
<linearGradient id="paint3_linear_69_2" x1="49.418" y1="55.3781" x2="119.656" y2="117.851" gradientUnits="userSpaceOnUse">
<stop stop-color="#EEFBFF"/>
<stop offset="0.1726" stop-color="#A7DCF9"/>
<stop offset="0.5174" stop-color="#979AFD"/>
<stop offset="0.6751" stop-color="#7A67EA"/>
<stop offset="0.8959" stop-color="#5526D2"/>
<stop offset="1" stop-color="#460CC9"/>
</linearGradient>
<linearGradient id="paint4_linear_69_2" x1="44.5358" y1="55.955" x2="121.603" y2="114.176" gradientUnits="userSpaceOnUse">
<stop stop-color="#DCF4FF"/>
<stop offset="0.1726" stop-color="#A7DCF9"/>
<stop offset="0.5174" stop-color="#979AFD"/>
<stop offset="0.8351" stop-color="#7F5FE3"/>
<stop offset="1" stop-color="#7545D7"/>
</linearGradient>
<linearGradient id="paint5_linear_69_2" x1="46.4827" y1="77.7043" x2="55.0876" y2="75.4867" gradientUnits="userSpaceOnUse">
<stop stop-color="#EEFBFF"/>
<stop offset="0.1726" stop-color="#A7DCF9"/>
<stop offset="0.5174" stop-color="#979AFD"/>
<stop offset="0.6751" stop-color="#7A67EA"/>
<stop offset="0.8959" stop-color="#5526D2"/>
<stop offset="1" stop-color="#460CC9"/>
</linearGradient>
<linearGradient id="paint6_linear_69_2" x1="36.7468" y1="79.9813" x2="61.1777" y2="73.6885" gradientUnits="userSpaceOnUse">
<stop stop-color="#DCF4FF"/>
<stop offset="0.1726" stop-color="#A7DCF9"/>
<stop offset="0.5174" stop-color="#979AFD"/>
<stop offset="0.8351" stop-color="#7F5FE3"/>
<stop offset="1" stop-color="#7545D7"/>
</linearGradient>
<linearGradient id="paint7_linear_69_2" x1="53.7968" y1="106.541" x2="62.4018" y2="104.323" gradientUnits="userSpaceOnUse">
<stop stop-color="#EEFBFF"/>
<stop offset="0.1726" stop-color="#A7DCF9"/>
<stop offset="0.5174" stop-color="#979AFD"/>
<stop offset="0.6751" stop-color="#7A67EA"/>
<stop offset="0.8959" stop-color="#5526D2"/>
<stop offset="1" stop-color="#460CC9"/>
</linearGradient>
<linearGradient id="paint8_linear_69_2" x1="44.0606" y1="108.817" x2="68.4919" y2="102.524" gradientUnits="userSpaceOnUse">
<stop stop-color="#DCF4FF"/>
<stop offset="0.1726" stop-color="#A7DCF9"/>
<stop offset="0.5174" stop-color="#979AFD"/>
<stop offset="0.8351" stop-color="#7F5FE3"/>
<stop offset="1" stop-color="#7545D7"/>
</linearGradient>
<linearGradient id="paint9_linear_69_2" x1="70.3112" y1="74.4718" x2="102.182" y2="92.9801" gradientUnits="userSpaceOnUse">
<stop stop-color="#DCF4FF"/>
<stop offset="0.3805" stop-color="#979AFD"/>
<stop offset="0.7884" stop-color="#7F5FE3"/>
<stop offset="1" stop-color="#7545D7"/>
</linearGradient>
<linearGradient id="paint10_linear_69_2" x1="82.0249" y1="69.4122" x2="111.834" y2="115.246" gradientUnits="userSpaceOnUse">
<stop stop-color="#DCF4FF"/>
<stop offset="0.5174" stop-color="#979AFD"/>
<stop offset="0.8351" stop-color="#7F5FE3"/>
<stop offset="1" stop-color="#7545D7"/>
</linearGradient>
<linearGradient id="paint11_linear_69_2" x1="97.5719" y1="69.4091" x2="90.4055" y2="85.9971" gradientUnits="userSpaceOnUse">
<stop stop-color="#F2DDFD"/>
<stop offset="0.0891545" stop-color="#D4B8F4"/>
<stop offset="0.2064" stop-color="#B18FEA"/>
<stop offset="0.2986" stop-color="#9C75E3"/>
<stop offset="0.3536" stop-color="#946BE1"/>
<stop offset="0.707" stop-color="#561FCE"/>
</linearGradient>
<linearGradient id="paint12_linear_69_2" x1="95.4427" y1="75.6567" x2="85.1374" y2="99.9148" gradientUnits="userSpaceOnUse">
<stop stop-color="#F2DDFD"/>
<stop offset="0.0891545" stop-color="#D4B8F4"/>
<stop offset="0.2064" stop-color="#B18FEA"/>
<stop offset="0.2986" stop-color="#9C75E3"/>
<stop offset="0.3536" stop-color="#946BE1"/>
<stop offset="0.707" stop-color="#561FCE"/>
</linearGradient>
<linearGradient id="paint13_linear_69_2" x1="31.2701" y1="134.184" x2="35.8651" y2="153.89" gradientUnits="userSpaceOnUse">
<stop stop-color="#DCF4FF"/>
<stop offset="0.1726" stop-color="#A7DCF9"/>
<stop offset="0.5174" stop-color="#979AFD"/>
<stop offset="0.8351" stop-color="#7F5FE3"/>
<stop offset="1" stop-color="#7545D7"/>
</linearGradient>
<linearGradient id="paint14_linear_69_2" x1="32.6452" y1="129.254" x2="37.2379" y2="148.913" gradientUnits="userSpaceOnUse">
<stop stop-color="#DCF4FF"/>
<stop offset="0.1726" stop-color="#A7DCF9"/>
<stop offset="0.5174" stop-color="#979AFD"/>
<stop offset="0.8351" stop-color="#7F5FE3"/>
<stop offset="1" stop-color="#7545D7"/>
</linearGradient>
<linearGradient id="paint15_linear_69_2" x1="65.4127" y1="126.08" x2="70.0077" y2="145.786" gradientUnits="userSpaceOnUse">
<stop stop-color="#DCF4FF"/>
<stop offset="0.1726" stop-color="#A7DCF9"/>
<stop offset="0.5174" stop-color="#979AFD"/>
<stop offset="0.8351" stop-color="#7F5FE3"/>
<stop offset="1" stop-color="#7545D7"/>
</linearGradient>
<linearGradient id="paint16_linear_69_2" x1="119.446" y1="113.255" x2="124.041" y2="132.961" gradientUnits="userSpaceOnUse">
<stop stop-color="#DCF4FF"/>
<stop offset="0.1726" stop-color="#A7DCF9"/>
<stop offset="0.5174" stop-color="#979AFD"/>
<stop offset="0.8351" stop-color="#7F5FE3"/>
<stop offset="1" stop-color="#7545D7"/>
</linearGradient>
<linearGradient id="paint17_linear_69_2" x1="66.7875" y1="121.15" x2="71.3802" y2="140.809" gradientUnits="userSpaceOnUse">
<stop stop-color="#DCF4FF"/>
<stop offset="0.1726" stop-color="#A7DCF9"/>
<stop offset="0.5174" stop-color="#979AFD"/>
<stop offset="0.8351" stop-color="#7F5FE3"/>
<stop offset="1" stop-color="#7545D7"/>
</linearGradient>
<linearGradient id="paint18_linear_69_2" x1="120.821" y1="108.325" x2="125.414" y2="127.983" gradientUnits="userSpaceOnUse">
<stop stop-color="#DCF4FF"/>
<stop offset="0.1726" stop-color="#A7DCF9"/>
<stop offset="0.5174" stop-color="#979AFD"/>
<stop offset="0.8351" stop-color="#7F5FE3"/>
<stop offset="1" stop-color="#7545D7"/>
</linearGradient>
<linearGradient id="paint19_linear_69_2" x1="55.9871" y1="32.8121" x2="128.522" y2="74.9701" gradientUnits="userSpaceOnUse">
<stop stop-color="#EEFBFF"/>
<stop offset="0.2381" stop-color="#A7DCF9"/>
<stop offset="0.5174" stop-color="#979AFD"/>
<stop offset="0.6751" stop-color="#7A67EA"/>
<stop offset="0.8959" stop-color="#5526D2"/>
<stop offset="1" stop-color="#460CC9"/>
</linearGradient>
<linearGradient id="paint20_linear_69_2" x1="54.5471" y1="-12.4813" x2="78.7133" y2="42.8458" gradientUnits="userSpaceOnUse">
<stop stop-color="#FFD89F"/>
<stop offset="0.0160918" stop-color="#FFD391"/>
<stop offset="0.0517382" stop-color="#FFCB7A"/>
<stop offset="0.092301" stop-color="#FFC467"/>
<stop offset="0.14" stop-color="#FFBF5A"/>
<stop offset="0.2016" stop-color="#FFBD52"/>
<stop offset="0.3271" stop-color="#FFBC50"/>
<stop offset="0.4296" stop-color="#FAA946"/>
<stop offset="0.6829" stop-color="#F07F2F"/>
<stop offset="0.8817" stop-color="#EA6521"/>
<stop offset="1" stop-color="#E85B1C"/>
</linearGradient>
</defs>
</svg>
