<svg width="126" height="50" viewBox="0 0 126 50" fill="none" xmlns="http://www.w3.org/2000/svg">
<g clip-path="url(#clip0_1655_12523)">
<path d="M16.2776 33.8281L1.49072 37.2513C0.951377 37.3864 0.546875 37.9269 0.546875 38.4674V48.6469C0.546875 49.5026 1.22105 50.0433 2.075 49.8632L22.7047 45.0885C23.5587 44.9083 23.9183 44.0975 23.5587 43.3318L19.8283 35.6297C19.244 34.4136 19.8283 33.1524 21.1316 32.8822L34.6151 29.6392C35.559 29.4139 36.368 28.423 36.368 27.4321V18.0183C36.368 17.1625 35.6938 16.5769 34.8399 16.8021L15.3787 21.4415C14.1652 21.7117 13.6258 22.8828 14.1652 24.0089L17.581 31.0805C18.1653 32.2966 17.581 33.5128 16.2776 33.8281Z" fill="#667085"/>
<path d="M6.52847 8.38127L10.3938 16.3087C10.8882 17.3446 10.3938 18.4257 9.27013 18.6509L2.12387 20.3174C1.22498 20.5427 0.505859 21.4435 0.505859 22.3443V30.8573C0.505859 32.2986 1.67442 33.1995 3.06772 32.8842L9.71957 31.3527C10.6185 31.1726 11.3376 30.2267 11.3376 29.3258L11.3825 20.5877C11.3825 19.3715 12.3713 18.1554 13.5399 17.8852L35.3382 12.6603C35.8775 12.5251 36.282 11.9846 36.282 11.4441V1.26461C36.282 0.408816 35.6079 -0.176733 34.7539 0.0484781L7.38245 6.62461C6.52847 6.8048 6.16892 7.61554 6.52847 8.38127Z" fill="#667085"/>
<path d="M73.2782 32.0782H60.8283V12.4749H55.082V37.4246H73.2782V32.0782Z" fill="#667085"/>
<path d="M77.0195 37.4246H82.7658V12.4749H77.0195V37.4246Z" fill="#667085"/>
<path d="M87.0605 37.4255H92.5226V31.9365H87.0605V37.4255Z" fill="#667085"/>
<path d="M102.547 27.6942H114.571V22.7755H102.547V17.5361H115.6V12.4749H96.8008V37.4246H102.547V27.6942Z" fill="#667085"/>
<path d="M119.502 37.4246H125.248V12.4749H119.502V37.4246Z" fill="#667085"/>
</g>
<defs>
<clipPath id="clip0_1655_12523">
<rect width="125.138" height="49.8994" fill="white" transform="translate(0.505859)"/>
</clipPath>
</defs>
</svg>
