<svg width="25" height="21" viewBox="0 0 25 21" fill="none" xmlns="http://www.w3.org/2000/svg">
<path d="M14.3187 3.05176L12.9315 6.84337L12.5307 7.96853L10.7582 12.8236L10.7428 12.8853L8.61583 18.7268L7.89142 20.6997H2.66639L3.3908 18.7268L5.50239 12.8853L7.29031 7.96853H1.78784L3.59117 3.05176H14.3187Z" fill="url(#paint0_linear_43_5312)"/>
<path d="M7.29038 7.96851L5.50247 12.8853L3.39088 18.7268H0.770654L2.89766 12.8853H0L1.78792 7.96851H7.29038Z" fill="url(#paint1_linear_43_5312)"/>
<path d="M23.2275 3.05179L25 0H18.172L16.4149 3.05179L14.9969 5.51788L13.5789 7.95314L13.5943 7.96856H13.5789L10.7737 12.8237L10.7429 12.8699L10.7583 12.8853L14.1184 18.7269H22.611L18.4032 11.4211L20.3915 7.96856L23.2275 3.05179Z" fill="url(#paint2_linear_43_5312)"/>
<defs>
<linearGradient id="paint0_linear_43_5312" x1="4.58829" y1="-1.60382" x2="12.5806" y2="26.0059" gradientUnits="userSpaceOnUse">
<stop stop-color="#9021CC"/>
<stop offset="1" stop-color="#431068"/>
</linearGradient>
<linearGradient id="paint1_linear_43_5312" x1="-0.919251" y1="7.23984" x2="10.5243" y2="21.3475" gradientUnits="userSpaceOnUse">
<stop stop-color="#FFB25B"/>
<stop offset="1" stop-color="#FF6D33"/>
</linearGradient>
<linearGradient id="paint2_linear_43_5312" x1="12.2603" y1="29.0532" x2="30.4246" y2="-25.4397" gradientUnits="userSpaceOnUse">
<stop stop-color="#F328A5"/>
<stop offset="1" stop-color="#F38AB8"/>
</linearGradient>
</defs>
</svg>
