<svg width="172" height="34" viewBox="0 0 172 34" fill="none" xmlns="http://www.w3.org/2000/svg">
<path d="M23.2026 5.01221L20.9548 11.2401L20.3055 13.0882L17.4333 21.0629L17.4083 21.1642L13.9617 30.7592L12.7878 33.9997H4.32107L5.49492 30.7592L8.91658 21.1642L11.8138 13.0882H2.89746L5.81961 5.01221H23.2026Z" fill="url(#paint0_linear_1337_6507)"/>
<path d="M11.8135 13.0889L8.9163 21.1649L5.49464 30.7599H1.24878L4.69542 21.1649H0L2.89717 13.0889H11.8135Z" fill="url(#paint1_linear_1337_6507)"/>
<path d="M37.6375 5.01269L40.5097 0H29.4455L26.5982 5.01269L24.3005 9.06335L22.0027 13.0634L22.0277 13.0887H22.0027L17.4572 21.0634L17.4072 21.1394L17.4322 21.1647L22.8769 30.7597H36.6384L29.8201 18.7596L33.042 13.0887L37.6375 5.01269Z" fill="url(#paint2_linear_1337_6507)"/>
<path d="M43.0732 26.8912V8.78125H46.4391V15.9735H46.8981L52.6864 8.78125H56.9957L49.55 17.7069L57.2507 26.8912H52.8139L46.8981 19.5437H46.4391V26.8912H43.0732Z" fill="#431068"/>
<path d="M59.0351 26.8912V8.78125H70.5096V11.8858H62.4009V16.2063H69.7957V19.3109H62.4009V23.7866H70.6626V26.8912H59.0351Z" fill="#431068"/>
<path d="M73.1542 26.8912V8.78125H76.5201V26.8912H73.1542Z" fill="#431068"/>
<path d="M92.42 26.8143V14.0195H95.6265V26.8143H92.42ZM94.0233 12.5233C93.4464 12.5233 92.9544 12.3342 92.5472 11.9558C92.157 11.5775 91.9619 11.0788 91.9619 10.4597C91.9619 9.84057 92.157 9.34185 92.5472 8.96351C92.9544 8.58517 93.4464 8.396 94.0233 8.396C94.6171 8.396 95.1091 8.58517 95.4993 8.96351C95.8895 9.34185 96.0846 9.84057 96.0846 10.4597C96.0846 11.0788 95.8895 11.5775 95.4993 11.9558C95.1091 12.3342 94.6171 12.5233 94.0233 12.5233Z" fill="#431068"/>
<path d="M99.1797 26.8143V14.0195H102.335V15.6962H102.793C102.997 15.2491 103.379 14.8278 103.939 14.4322C104.498 14.0195 105.347 13.8131 106.483 13.8131C107.467 13.8131 108.324 14.0453 109.054 14.5096C109.8 14.9568 110.377 15.5845 110.784 16.3927C111.191 17.1838 111.395 18.1125 111.395 19.1787V26.8143H108.189V19.4367C108.189 18.4736 107.951 17.7513 107.476 17.2698C107.018 16.7883 106.356 16.5475 105.491 16.5475C104.507 16.5475 103.744 16.8829 103.201 17.5536C102.658 18.2071 102.386 19.1271 102.386 20.3137V26.8143H99.1797Z" fill="#431068"/>
<path d="M118.78 27.1754C117.881 27.1754 117.075 27.0207 116.363 26.7111C115.65 26.3844 115.082 25.92 114.658 25.3181C114.251 24.699 114.047 23.9509 114.047 23.0739C114.047 22.1968 114.251 21.4659 114.658 20.8812C115.082 20.2793 115.659 19.8322 116.388 19.5398C117.135 19.2303 117.983 19.0755 118.933 19.0755H122.394V18.3532C122.394 17.7513 122.208 17.2612 121.834 16.8829C121.461 16.4873 120.867 16.2896 120.053 16.2896C119.256 16.2896 118.662 16.4787 118.271 16.8571C117.881 17.2182 117.627 17.6911 117.508 18.2758L114.556 17.2698C114.76 16.6163 115.082 16.023 115.523 15.4899C115.981 14.9396 116.583 14.501 117.33 14.1743C118.093 13.8303 119.018 13.6584 120.104 13.6584C121.766 13.6584 123.081 14.0797 124.048 14.9224C125.015 15.765 125.499 16.986 125.499 18.5854V23.3576C125.499 23.8736 125.736 24.1315 126.211 24.1315H127.229V26.8143H125.092C124.464 26.8143 123.946 26.6595 123.539 26.35C123.132 26.0404 122.929 25.6277 122.929 25.1118V25.086H122.445C122.377 25.2923 122.224 25.5675 121.987 25.9114C121.749 26.2382 121.376 26.5305 120.867 26.7885C120.358 27.0465 119.663 27.1754 118.78 27.1754ZM119.34 24.5443C120.24 24.5443 120.969 24.2949 121.529 23.7962C122.106 23.2803 122.394 22.601 122.394 21.7583V21.5003H119.162C118.568 21.5003 118.102 21.6293 117.763 21.8873C117.423 22.1452 117.254 22.5064 117.254 22.9707C117.254 23.435 117.432 23.8134 117.788 24.1057C118.144 24.3981 118.662 24.5443 119.34 24.5443Z" fill="#431068"/>
<path d="M129.574 26.8143V14.0195H132.729V15.6962H133.187C133.391 15.2491 133.773 14.8278 134.333 14.4322C134.893 14.0195 135.741 13.8131 136.878 13.8131C137.862 13.8131 138.718 14.0453 139.448 14.5096C140.194 14.9568 140.771 15.5845 141.178 16.3927C141.585 17.1838 141.789 18.1125 141.789 19.1787V26.8143H138.583V19.4367C138.583 18.4736 138.345 17.7513 137.87 17.2698C137.412 16.7883 136.75 16.5475 135.885 16.5475C134.901 16.5475 134.138 16.8829 133.595 17.5536C133.052 18.2071 132.78 19.1271 132.78 20.3137V26.8143H129.574Z" fill="#431068"/>
<path d="M151.185 27.1754C149.963 27.1754 148.852 26.9175 147.851 26.4016C146.867 25.8856 146.087 25.1376 145.51 24.1573C144.933 23.1771 144.645 21.9905 144.645 20.5975V20.2363C144.645 18.8434 144.933 17.6567 145.51 16.6765C146.087 15.6962 146.867 14.9482 147.851 14.4322C148.852 13.9163 149.963 13.6584 151.185 13.6584C152.389 13.6584 153.424 13.8733 154.29 14.3033C155.155 14.7332 155.85 15.3265 156.376 16.0832C156.919 16.8227 157.276 17.6653 157.445 18.6112L154.341 19.2819C154.273 18.766 154.12 18.3016 153.882 17.8889C153.645 17.4762 153.306 17.1494 152.865 16.9087C152.44 16.6679 151.906 16.5475 151.261 16.5475C150.617 16.5475 150.031 16.6937 149.505 16.986C148.996 17.2612 148.589 17.6825 148.284 18.25C147.995 18.8004 147.851 19.4797 147.851 20.2879V20.5459C147.851 21.3542 147.995 22.0421 148.284 22.6096C148.589 23.1599 148.996 23.5812 149.505 23.8736C150.031 24.1487 150.617 24.2863 151.261 24.2863C152.228 24.2863 152.958 24.0369 153.45 23.5382C153.959 23.0223 154.281 22.3516 154.417 21.5261L157.522 22.2742C157.301 23.1857 156.919 24.0197 156.376 24.7764C155.85 25.5159 155.155 26.1006 154.29 26.5305C153.424 26.9605 152.389 27.1754 151.185 27.1754Z" fill="#431068"/>
<path d="M165.918 27.1754C164.663 27.1754 163.551 26.9089 162.584 26.3758C161.634 25.8255 160.888 25.0602 160.345 24.0799C159.819 23.0825 159.556 21.9131 159.556 20.5717V20.2621C159.556 18.9207 159.819 17.7599 160.345 16.7797C160.871 15.7822 161.609 15.017 162.559 14.4838C163.509 13.9335 164.612 13.6584 165.867 13.6584C167.106 13.6584 168.183 13.9421 169.099 14.5096C170.015 15.0599 170.728 15.8338 171.237 16.8313C171.746 17.8115 172 18.9551 172 20.2621V21.3714H162.813C162.847 22.2484 163.17 22.9621 163.78 23.5124C164.391 24.0627 165.138 24.3379 166.02 24.3379C166.919 24.3379 167.581 24.1401 168.005 23.7446C168.429 23.349 168.751 22.9105 168.972 22.429L171.593 23.822C171.355 24.2691 171.008 24.7592 170.55 25.2923C170.109 25.8083 169.515 26.2554 168.768 26.6337C168.022 26.9949 167.072 27.1754 165.918 27.1754ZM162.839 18.9465H168.743C168.675 18.2071 168.378 17.6137 167.852 17.1666C167.343 16.7195 166.673 16.4959 165.842 16.4959C164.976 16.4959 164.289 16.7195 163.78 17.1666C163.271 17.6137 162.957 18.2071 162.839 18.9465Z" fill="#431068"/>
<path d="M84.0281 16.6728V26.8143H87.244V16.6728H89.8983V13.9821H87.244V12.1711C87.244 11.6537 87.4822 11.395 87.9586 11.395H89.8983V8.7044H86.8356C86.0018 8.7044 85.3212 8.97173 84.7938 9.50641C84.2833 10.0238 84.0281 10.7224 84.0281 11.602V13.9821H81.5098V16.6728H84.0281Z" fill="#431068"/>
<defs>
<linearGradient id="paint0_linear_1337_6507" x1="5.91574" y1="5.01221" x2="13.2343" y2="33.9531" gradientUnits="userSpaceOnUse">
<stop stop-color="#9021CC"/>
<stop offset="1" stop-color="#431068"/>
</linearGradient>
<linearGradient id="paint1_linear_1337_6507" x1="2.83015" y1="13.0889" x2="5.98876" y2="30.7452" gradientUnits="userSpaceOnUse">
<stop stop-color="#FFB25B"/>
<stop offset="1" stop-color="#FF6D33"/>
</linearGradient>
<linearGradient id="paint2_linear_1337_6507" x1="22.7241" y1="30.7597" x2="40.871" y2="0.214724" gradientUnits="userSpaceOnUse">
<stop stop-color="#F328A5"/>
<stop offset="1" stop-color="#F38AB8"/>
</linearGradient>
</defs>
</svg>
