<svg width="50" height="49" viewBox="0 0 50 49" fill="none" xmlns="http://www.w3.org/2000/svg">
<g id="okb-okb-logo" clip-path="url(#clip0_1417_4652)">
<g id="Path-raw">
<path id="Oval" d="M24.799 22.0765C30.8559 22.0765 35.766 17.1664 35.766 11.1096C35.766 5.05266 30.8559 0.142578 24.799 0.142578C18.7421 0.142578 13.832 5.05266 13.832 11.1096C13.832 17.1664 18.7421 22.0765 24.799 22.0765Z" fill="#88BDF3"/>
<path id="Oval-Copy" d="M24.799 48.58C30.8559 48.58 35.766 43.6699 35.766 37.613C35.766 31.5561 30.8559 26.646 24.799 26.646C18.7421 26.646 13.832 31.5561 13.832 37.613C13.832 43.6699 18.7421 48.58 24.799 48.58Z" fill="#3075EE"/>
<path id="Oval-Copy-2" d="M38.0507 35.3285C44.1076 35.3285 49.0177 30.4184 49.0177 24.3615C49.0177 18.3046 44.1076 13.3945 38.0507 13.3945C31.9938 13.3945 27.0837 18.3046 27.0837 24.3615C27.0837 30.4184 31.9938 35.3285 38.0507 35.3285Z" fill="#5795F1"/>
<path id="Oval-Copy-3" d="M11.5473 35.3285C17.6042 35.3285 22.5143 30.4184 22.5143 24.3615C22.5143 18.3046 17.6042 13.3945 11.5473 13.3945C5.49041 13.3945 0.580322 18.3046 0.580322 24.3615C0.580322 30.4184 5.49041 35.3285 11.5473 35.3285Z" fill="#205FEC"/>
<path id="Combined-Shape" d="M22.2174 21.7797C20.2626 21.3043 18.4763 20.3005 17.0537 18.878C15.6312 17.4555 14.6274 15.6691 14.1521 13.7144C16.1034 14.1969 17.8859 15.2031 19.3073 16.6245C20.7286 18.0458 21.7349 19.8283 22.2174 21.7797Z" fill="#134BEF"/>
<path id="Combined-Shape_2" d="M14.1292 35.0311C14.6045 33.0763 15.6083 31.29 17.0308 29.8675C18.4533 28.445 20.2397 27.4411 22.1944 26.9658C21.7119 28.9171 20.7057 30.6996 19.2843 32.121C17.863 33.5423 16.0805 34.5486 14.1292 35.0311Z" fill="#0932E8"/>
<path id="Combined-Shape_3" d="M27.3809 26.9434C29.3356 27.4187 31.122 28.4225 32.5445 29.845C33.967 31.2675 34.9708 33.0539 35.4462 35.0087C33.4948 34.5261 31.7123 33.5199 30.291 32.0985C28.8696 30.6772 27.8634 28.8947 27.3809 26.9434Z" fill="#164BEA"/>
<path id="Combined-Shape_4" d="M35.4691 13.6914C34.9938 15.6462 33.99 17.4326 32.5675 18.8551C31.145 20.2776 29.3586 21.2814 27.4038 21.7567C27.8864 19.8054 28.8926 18.0229 30.3139 16.6015C31.7353 15.1802 33.5178 14.174 35.4691 13.6914Z" fill="#3170F1"/>
</g>
</g>
<defs>
<clipPath id="clip0_1417_4652">
<rect width="48.4375" height="48.4375" fill="white" transform="translate(0.580322 0.142578)"/>
</clipPath>
</defs>
</svg>
