<svg width="480" height="481" viewBox="0 0 480 481" fill="none" xmlns="http://www.w3.org/2000/svg">
<path d="M240 43.3802C272.662 43.3802 304.813 51.4872 333.569 66.9742C362.325 82.4611 386.788 104.844 404.763 132.114C422.737 159.385 433.662 190.69 436.557 223.223C439.452 255.756 434.226 288.499 421.349 318.515C408.472 348.531 388.346 374.881 362.776 395.202C337.206 415.523 306.992 429.179 274.843 434.946C242.695 440.713 209.618 438.411 178.579 428.244C147.54 418.078 119.51 400.367 97.0021 376.699L168.501 308.706C179.755 320.54 193.77 329.396 209.29 334.479C224.809 339.562 241.348 340.713 257.422 337.83C273.496 334.946 288.603 328.118 301.388 317.958C314.173 307.797 324.236 294.622 330.675 279.614C337.113 264.606 339.726 248.235 338.279 231.968C336.831 215.702 331.369 200.049 322.381 186.414C313.394 172.779 301.163 161.587 286.785 153.844C272.406 146.1 256.331 142.047 240 142.047L240 43.3802Z" fill="#6B22A2"/>
<path d="M67.6497 407.732C42.533 381.814 23.5853 350.565 12.2169 316.31C0.84852 282.056 -2.64782 245.678 1.98813 209.886L142.052 228.027C140.144 242.757 141.583 257.727 146.261 271.823C150.94 285.92 158.737 298.78 169.073 309.446L67.6497 407.732Z" fill="#E050A7"/>
<path d="M12.5504 211.376C18.7461 163.343 39.9888 118.505 73.234 83.2881L168.202 172.938C153.889 188.1 144.743 207.404 142.076 228.083L12.5504 211.376Z" fill="#F19D5B"/>
<path d="M96.3865 105.379C100.355 101.167 104.508 97.132 108.831 93.2852L174.416 166.999C172.254 168.923 170.178 170.94 168.193 173.046L96.3865 105.379Z" fill="#31E4E7"/>
<path d="M108.728 93.3769C113.049 89.5272 117.537 85.8694 122.18 82.4141L181.09 161.564C178.769 163.291 176.525 165.12 174.364 167.045L108.728 93.3769Z" fill="#3D1464"/>
<path d="M122.049 82.5116C136.937 71.4115 153.317 62.4685 170.705 55.9473L205.353 148.33C196.659 151.591 188.468 156.063 181.025 161.613L122.049 82.5116Z" fill="#85A9F1"/>
<path d="M165.288 40.8902C189.207 31.9472 214.538 27.3714 240.074 27.3802L240.034 141.903C228.206 141.899 216.474 144.019 205.395 148.161L165.288 40.8902Z" fill="#5383EC"/>
<g filter="url(#filter0_d_1765_11458)">
<circle cx="240" cy="240.715" r="107.733" fill="white" shape-rendering="crispEdges"/>
<circle cx="240" cy="240.715" r="114.133" stroke="white" stroke-opacity="0.15" stroke-width="12.8" shape-rendering="crispEdges"/>
</g>
<path d="M245.063 220.406L241.203 230.957L240.088 234.088L235.156 247.598L235.113 247.769L229.194 264.024L227.178 269.514H212.639L214.655 264.024L220.531 247.769L225.506 234.088H210.194L215.212 220.406H245.063Z" fill="url(#paint0_linear_1765_11458)"/>
<path d="M225.505 234.089L220.53 247.77L214.654 264.025H207.363L213.282 247.77H205.219L210.194 234.089H225.505Z" fill="url(#paint1_linear_1765_11458)"/>
<path d="M269.851 220.407L274.784 211.915H255.784L250.894 220.407L246.949 227.269L243.003 234.045L243.046 234.088H243.003L235.197 247.598L235.111 247.727L235.154 247.77L244.504 264.025H268.136L256.427 243.695L261.96 234.088L269.851 220.407Z" fill="url(#paint2_linear_1765_11458)"/>
<path d="M218.427 399H216.587V389.243H220.601C222.441 389.243 223.723 390.414 223.723 392.24V392.435C223.723 394.261 222.385 395.432 220.601 395.432H218.427V399ZM218.427 390.916V393.759H220.42C221.284 393.759 221.883 393.243 221.883 392.407V392.268C221.883 391.432 221.298 390.916 220.42 390.916H218.427ZM226.811 399H225.055V392.087H226.783V392.867H227.034C227.229 392.31 227.731 392.059 228.372 392.059H229.208V393.62H228.344C227.452 393.62 226.811 394.094 226.811 395.069V399ZM233.486 399.195C231.409 399.195 230.001 397.801 230.001 395.627V395.46C230.001 393.285 231.395 391.891 233.458 391.891C235.493 391.891 236.817 393.341 236.817 395.46V396.059H231.786C231.827 397.007 232.566 397.662 233.542 397.662C234.517 397.662 234.922 397.16 235.159 396.63L236.594 397.383C236.204 398.122 235.382 399.195 233.486 399.195ZM231.799 394.749H235.033C234.949 393.954 234.35 393.425 233.444 393.425C232.496 393.425 231.925 393.954 231.799 394.749ZM242.478 396.24H238.353V394.651H242.478V396.24ZM247.728 399.195C245.47 399.195 243.895 397.941 243.895 395.822V395.432H245.707V395.822C245.707 396.993 246.474 397.578 247.728 397.578C248.982 397.578 249.61 397.021 249.61 396.24C249.61 395.432 248.899 395.153 247.644 394.874L247.324 394.805C245.303 394.359 244.118 393.676 244.118 391.891C244.118 390.107 245.47 389.048 247.561 389.048C249.651 389.048 251.171 390.107 251.171 392.226V392.644H249.359V392.226C249.359 391.111 248.676 390.665 247.561 390.665C246.446 390.665 245.93 391.111 245.93 391.836C245.93 392.561 246.474 392.909 247.644 393.16L247.965 393.23C250.042 393.676 251.422 394.4 251.422 396.184C251.422 397.969 249.986 399.195 247.728 399.195ZM254.996 399.195C253.519 399.195 252.404 398.401 252.404 396.979C252.404 395.557 253.519 394.819 255.08 394.819H256.975V394.428C256.975 393.787 256.585 393.313 255.693 393.313C254.815 393.313 254.425 393.759 254.299 394.386L252.682 393.843C253.017 392.797 253.923 391.891 255.721 391.891C257.533 391.891 258.676 392.825 258.676 394.554V397.132C258.676 397.411 258.815 397.55 259.066 397.55H259.624V399H258.453C257.77 399 257.268 398.638 257.268 398.08V398.066H257.003C256.878 398.415 256.446 399.195 254.996 399.195ZM255.303 397.773C256.278 397.773 256.975 397.188 256.975 396.268V396.129H255.205C254.55 396.129 254.16 396.421 254.16 396.923C254.16 397.425 254.55 397.773 255.303 397.773ZM262.664 399H260.908V389.243H262.664V399ZM267.76 399.195C265.683 399.195 264.275 397.801 264.275 395.627V395.46C264.275 393.285 265.669 391.891 267.732 391.891C269.767 391.891 271.091 393.341 271.091 395.46V396.059H266.06C266.101 397.007 266.84 397.662 267.816 397.662C268.791 397.662 269.196 397.16 269.433 396.63L270.868 397.383C270.478 398.122 269.656 399.195 267.76 399.195ZM266.073 394.749H269.307C269.224 393.954 268.624 393.425 267.718 393.425C266.77 393.425 266.199 393.954 266.073 394.749Z" fill="white"/>
<path d="M73.0237 179.102H71.1839V171.017H68.3405V169.345H75.8671V171.017H73.0237V179.102ZM79.0191 179.297C76.9423 179.297 75.5346 177.903 75.5346 175.728V175.561C75.5346 173.387 76.9284 171.993 78.9913 171.993C81.0263 171.993 82.3504 173.443 82.3504 175.561V176.161H77.3187C77.3605 177.108 78.0992 177.763 79.0749 177.763C80.0506 177.763 80.4548 177.262 80.6917 176.732L82.1274 177.485C81.7371 178.223 80.9148 179.297 79.0191 179.297ZM77.3326 174.85H80.5663C80.4827 174.056 79.8833 173.526 78.9773 173.526C78.0295 173.526 77.4581 174.056 77.3326 174.85ZM86.0601 179.297C84.5826 179.297 83.4675 178.502 83.4675 177.081C83.4675 175.659 84.5826 174.92 86.1437 174.92H88.0393V174.53C88.0393 173.889 87.649 173.415 86.757 173.415C85.8789 173.415 85.4886 173.861 85.3631 174.488L83.7463 173.944C84.0808 172.899 84.9868 171.993 86.7848 171.993C88.5968 171.993 89.7398 172.927 89.7398 174.655V177.234C89.7398 177.513 89.8791 177.652 90.13 177.652H90.6876V179.102H89.5168C88.8338 179.102 88.332 178.739 88.332 178.182V178.168H88.0672C87.9417 178.516 87.5096 179.297 86.0601 179.297ZM86.3667 177.875C87.3424 177.875 88.0393 177.29 88.0393 176.37V176.23H86.2691C85.614 176.23 85.2238 176.523 85.2238 177.025C85.2238 177.527 85.614 177.875 86.3667 177.875ZM93.7279 179.102H91.9716V172.188H93.7V172.941H93.9509C94.1878 172.481 94.7314 172.077 95.6513 172.077C96.641 172.077 97.1985 172.495 97.5191 173.108H97.77C98.0766 172.523 98.6063 172.077 99.6656 172.077C100.948 172.077 101.979 172.885 101.979 174.558V179.102H100.223V174.683C100.223 173.93 99.805 173.54 99.108 173.54C98.2996 173.54 97.8536 174.07 97.8536 175.018V179.102H96.0974V174.683C96.0974 173.93 95.6792 173.54 94.9823 173.54C94.1739 173.54 93.7279 174.07 93.7279 175.018V179.102Z" fill="white"/>
<path d="M202.761 75.4355H200.921V65.6787H204.935C206.775 65.6787 208.057 66.8496 208.057 68.6755V68.8706C208.057 70.6965 206.719 71.8673 204.935 71.8673H202.761V75.4355ZM202.761 67.3513V70.1947H204.754C205.618 70.1947 206.217 69.679 206.217 68.8427V68.7034C206.217 67.8671 205.632 67.3513 204.754 67.3513H202.761ZM211.145 75.4355H209.389V68.5222H211.117V69.3027H211.368C211.563 68.7452 212.065 68.4943 212.706 68.4943H213.542V70.0554H212.678C211.786 70.0554 211.145 70.5293 211.145 71.5049V75.4355ZM217.82 75.6307C215.743 75.6307 214.335 74.2369 214.335 72.0625V71.8952C214.335 69.7208 215.729 68.327 217.792 68.327C219.827 68.327 221.151 69.7766 221.151 71.8952V72.4946H216.119C216.161 73.4424 216.9 74.0975 217.876 74.0975C218.851 74.0975 219.256 73.5957 219.493 73.066L220.928 73.8187C220.538 74.5574 219.716 75.6307 217.82 75.6307ZM216.133 71.1844H219.367C219.283 70.3899 218.684 69.8602 217.778 69.8602C216.83 69.8602 216.259 70.3899 216.133 71.1844ZM226.812 72.6758H222.686V71.0868H226.812V72.6758ZM201.47 89.6307C199.212 89.6307 197.637 88.3762 197.637 86.2576V85.8673H199.449V86.2576C199.449 87.4284 200.215 88.0138 201.47 88.0138C202.724 88.0138 203.351 87.4563 203.351 86.6758C203.351 85.8673 202.641 85.5886 201.386 85.3098L201.066 85.2401C199.045 84.7941 197.86 84.1111 197.86 82.327C197.86 80.5429 199.212 79.4836 201.303 79.4836C203.393 79.4836 204.913 80.5429 204.913 82.6615V83.0797H203.101V82.6615C203.101 81.5465 202.418 81.1004 201.303 81.1004C200.187 81.1004 199.672 81.5465 199.672 82.2713C199.672 82.9961 200.215 83.3445 201.386 83.5954L201.707 83.6651C203.784 84.1111 205.163 84.8359 205.163 86.62C205.163 88.4041 203.728 89.6307 201.47 89.6307ZM209.741 89.6307C207.665 89.6307 206.257 88.2369 206.257 86.0625V85.8952C206.257 83.7208 207.651 82.327 209.714 82.327C211.749 82.327 213.073 83.7766 213.073 85.8952V86.4946H208.041C208.083 87.4424 208.821 88.0975 209.797 88.0975C210.773 88.0975 211.177 87.5957 211.414 87.066L212.85 87.8187C212.459 88.5574 211.637 89.6307 209.741 89.6307ZM208.055 85.1844H211.289C211.205 84.3899 210.606 83.8602 209.7 83.8602C208.752 83.8602 208.18 84.3899 208.055 85.1844ZM217.786 89.6307C215.709 89.6307 214.301 88.2369 214.301 86.0625V85.8952C214.301 83.7208 215.695 82.327 217.758 82.327C219.793 82.327 221.117 83.7766 221.117 85.8952V86.4946H216.085C216.127 87.4424 216.866 88.0975 217.842 88.0975C218.817 88.0975 219.222 87.5957 219.458 87.066L220.894 87.8187C220.504 88.5574 219.681 89.6307 217.786 89.6307ZM216.099 85.1844H219.333C219.249 84.3899 218.65 83.8602 217.744 83.8602C216.796 83.8602 216.225 84.3899 216.099 85.1844ZM225.468 89.6307C223.809 89.6307 222.346 88.3484 222.346 86.0904V85.8673C222.346 83.6093 223.795 82.327 225.468 82.327C226.722 82.327 227.322 82.8288 227.614 83.3166H227.865V79.6787H229.622V89.4355H227.893V88.5992H227.642C227.322 89.1289 226.722 89.6307 225.468 89.6307ZM225.998 88.0975C227.071 88.0975 227.893 87.3866 227.893 86.0485V85.9092C227.893 84.5711 227.085 83.8602 225.998 83.8602C224.91 83.8602 224.102 84.5711 224.102 85.9092V86.0485C224.102 87.3866 224.924 88.0975 225.998 88.0975Z" fill="white"/>
<path d="M46.4348 295.835H40.1347V286.078H41.9746V294.162H46.4348V295.835ZM48.623 288.113C47.9819 288.113 47.494 287.667 47.494 286.998C47.494 286.329 47.9819 285.883 48.623 285.883C49.2642 285.883 49.752 286.329 49.752 286.998C49.752 287.667 49.2642 288.113 48.623 288.113ZM49.5011 295.835H47.7449V288.922H49.5011V295.835ZM58.3885 298.623H56.6323V295.04H56.3814C56.0887 295.528 55.4894 296.03 54.2349 296.03C52.5623 296.03 51.1128 294.748 51.1128 292.49V292.267C51.1128 290.009 52.5763 288.726 54.2349 288.726C55.4894 288.726 56.0887 289.228 56.4093 289.758H56.6602V288.922H58.3885V298.623ZM54.7646 294.497C55.8518 294.497 56.6602 293.786 56.6602 292.448V292.309C56.6602 290.97 55.8378 290.26 54.7646 290.26C53.6913 290.26 52.869 290.97 52.869 292.309V292.448C52.869 293.786 53.6774 294.497 54.7646 294.497ZM62.97 295.946C61.3532 295.946 60.2799 294.762 60.2799 293.047V288.922H62.0361V292.908C62.0361 293.953 62.5658 294.469 63.5136 294.469C64.5868 294.469 65.2141 293.716 65.2141 292.434V288.922H66.9703V295.835H65.2419V294.929H64.991C64.768 295.403 64.2105 295.946 62.97 295.946ZM69.8027 288.113C69.1615 288.113 68.6737 287.667 68.6737 286.998C68.6737 286.329 69.1615 285.883 69.8027 285.883C70.4439 285.883 70.9317 286.329 70.9317 286.998C70.9317 287.667 70.4439 288.113 69.8027 288.113ZM70.6808 295.835H68.9246V288.922H70.6808V295.835ZM75.4146 296.03C73.7559 296.03 72.2924 294.748 72.2924 292.49V292.267C72.2924 290.009 73.742 288.726 75.4146 288.726C76.669 288.726 77.2684 289.228 77.5611 289.716H77.812V286.078H79.5682V295.835H77.8399V294.999H77.589C77.2684 295.528 76.669 296.03 75.4146 296.03ZM75.9443 294.497C77.0175 294.497 77.8399 293.786 77.8399 292.448V292.309C77.8399 290.97 77.0314 290.26 75.9443 290.26C74.8571 290.26 74.0486 290.97 74.0486 292.309V292.448C74.0486 293.786 74.871 294.497 75.9443 294.497ZM82.3934 288.113C81.7523 288.113 81.2644 287.667 81.2644 286.998C81.2644 286.329 81.7523 285.883 82.3934 285.883C83.0346 285.883 83.5224 286.329 83.5224 286.998C83.5224 287.667 83.0346 288.113 82.3934 288.113ZM83.2716 295.835H81.5153V288.922H83.2716V295.835ZM89.8173 295.835H87.866C86.946 295.835 86.3328 295.222 86.3328 294.274V290.371H84.6044V288.922H86.3328V286.775H88.089V288.922H89.9846V290.371H88.089V293.967C88.089 294.246 88.2284 294.385 88.4792 294.385H89.8173V295.835ZM96.6757 298.623H92.327V297.089H96.0903C96.3412 297.089 96.4806 296.95 96.4806 296.671V294.929H96.2297C96.0067 295.403 95.4492 295.946 94.2087 295.946C92.5918 295.946 91.5186 294.762 91.5186 293.047V288.922H93.2748V292.908C93.2748 293.953 93.8044 294.469 94.7522 294.469C95.8255 294.469 96.4527 293.716 96.4527 292.434V288.922H98.2089V297.062C98.2089 298.009 97.5957 298.623 96.6757 298.623ZM57.451 309.835H55.6111V300.078H59.6253C61.4652 300.078 62.7475 301.249 62.7475 303.075V303.27C62.7475 305.096 61.4094 306.267 59.6253 306.267H57.451V309.835ZM57.451 301.751V304.594H59.4441C60.3083 304.594 60.9077 304.078 60.9077 303.242V303.103C60.9077 302.266 60.3223 301.751 59.4441 301.751H57.451ZM67.2049 310.03C65.1421 310.03 63.581 308.72 63.581 306.49V306.267C63.581 304.037 65.1421 302.726 67.2049 302.726C69.2678 302.726 70.8289 304.037 70.8289 306.267V306.49C70.8289 308.72 69.2678 310.03 67.2049 310.03ZM67.2049 308.469C68.2782 308.469 69.0727 307.744 69.0727 306.448V306.309C69.0727 305.012 68.2921 304.288 67.2049 304.288C66.1178 304.288 65.3372 305.012 65.3372 306.309V306.448C65.3372 307.744 66.1317 308.469 67.2049 308.469ZM75.7394 310.03C73.6766 310.03 72.1155 308.72 72.1155 306.49V306.267C72.1155 304.037 73.6766 302.726 75.7394 302.726C77.8023 302.726 79.3634 304.037 79.3634 306.267V306.49C79.3634 308.72 77.8023 310.03 75.7394 310.03ZM75.7394 308.469C76.8127 308.469 77.6072 307.744 77.6072 306.448V306.309C77.6072 305.012 76.8266 304.288 75.7394 304.288C74.6522 304.288 73.8717 305.012 73.8717 306.309V306.448C73.8717 307.744 74.6662 308.469 75.7394 308.469ZM82.7407 309.835H80.9845V300.078H82.7407V309.835Z" fill="white"/>
<defs>
<filter id="filter0_d_1765_11458" x="55.4668" y="56.1816" width="369.066" height="369.066" filterUnits="userSpaceOnUse" color-interpolation-filters="sRGB">
<feFlood flood-opacity="0" result="BackgroundImageFix"/>
<feColorMatrix in="SourceAlpha" type="matrix" values="0 0 0 0 0 0 0 0 0 0 0 0 0 0 0 0 0 0 127 0" result="hardAlpha"/>
<feOffset/>
<feGaussianBlur stdDeviation="32"/>
<feComposite in2="hardAlpha" operator="out"/>
<feColorMatrix type="matrix" values="0 0 0 0 1 0 0 0 0 1 0 0 0 0 1 0 0 0 0.6 0"/>
<feBlend mode="normal" in2="BackgroundImageFix" result="effect1_dropShadow_1765_11458"/>
<feBlend mode="normal" in="SourceGraphic" in2="effect1_dropShadow_1765_11458" result="shape"/>
</filter>
<linearGradient id="paint0_linear_1765_11458" x1="217.987" y1="207.451" x2="240.227" y2="284.279" gradientUnits="userSpaceOnUse">
<stop stop-color="#9021CC"/>
<stop offset="1" stop-color="#431068"/>
</linearGradient>
<linearGradient id="paint1_linear_1765_11458" x1="202.661" y1="232.061" x2="234.504" y2="271.318" gradientUnits="userSpaceOnUse">
<stop stop-color="#FFB25B"/>
<stop offset="1" stop-color="#FF6D33"/>
</linearGradient>
<linearGradient id="paint2_linear_1765_11458" x1="239.334" y1="292.759" x2="289.878" y2="141.125" gradientUnits="userSpaceOnUse">
<stop stop-color="#F328A5"/>
<stop offset="1" stop-color="#F38AB8"/>
</linearGradient>
</defs>
</svg>
