<svg width="128" height="168" viewBox="0 0 128 168" fill="none" xmlns="http://www.w3.org/2000/svg">
<path d="M12.1797 126.766L110.687 70.5944L115.003 78.5007C121.176 89.8069 104.093 111.544 76.95 127.021C49.807 142.499 22.7198 145.914 16.5614 134.635L12.2447 126.729L12.1797 126.766Z" fill="url(#paint0_linear_66_72)"/>
<path d="M12.1825 126.751L12.8321 126.381L16.708 133.481C22.8829 144.793 49.9633 141.349 77.1141 125.864C98.484 113.676 113.576 97.6333 116.078 85.8333C114.397 97.7319 98.991 114.449 76.9067 127.044C49.6909 142.567 22.6755 145.973 16.5006 134.662L12.1825 126.751V126.751Z" fill="url(#paint1_linear_66_72)"/>
<path d="M23.6327 117.038L36.4083 139.857" stroke="#FFCF8A" stroke-width="1.87497" stroke-miterlimit="10" stroke-linecap="round" stroke-linejoin="round"/>
<path d="M35.7961 110.229L51.0626 137.497" stroke="#FFCF8A" stroke-width="1.87497" stroke-miterlimit="10" stroke-linecap="round" stroke-linejoin="round"/>
<path d="M47.9567 103.418L64.4766 132.925" stroke="#FFCF8A" stroke-width="1.87497" stroke-miterlimit="10" stroke-linecap="round" stroke-linejoin="round"/>
<path d="M60.0554 96.6468L76.961 126.843" stroke="#FFCF8A" stroke-width="1.87497" stroke-miterlimit="10" stroke-linecap="round" stroke-linejoin="round"/>
<path d="M72.2165 89.8357L88.7364 119.343" stroke="#FFCF8A" stroke-width="1.87497" stroke-miterlimit="10" stroke-linecap="round" stroke-linejoin="round"/>
<path d="M84.3137 83.0621L99.5801 110.33" stroke="#FFCF8A" stroke-width="1.87497" stroke-miterlimit="10" stroke-linecap="round" stroke-linejoin="round"/>
<path d="M96.4745 76.2547L109.25 99.0737" stroke="#FFCF8A" stroke-width="1.87497" stroke-miterlimit="10" stroke-linecap="round" stroke-linejoin="round"/>
<path d="M110.174 69.4953C103.974 58.1064 76.7981 61.544 49.4743 77.1735C22.1505 92.803 5.02606 114.706 11.2258 126.095C17.4256 137.484 44.6019 134.046 71.9257 118.416C99.2495 102.787 116.374 80.8843 110.174 69.4953Z" fill="url(#paint2_linear_66_72)"/>
<path d="M73.0289 116.962C89.7634 107.402 102.603 95.5526 108.708 85.1333C103.05 95.9018 89.7509 108.476 72.1698 118.519C44.8867 134.106 17.8043 137.527 11.6139 126.169C9.22046 121.778 10.3104 115.787 14.1582 109.217C11.0031 115.178 10.2716 120.573 12.473 124.612C18.6634 135.97 45.7458 132.548 73.0289 116.962Z" fill="url(#paint3_linear_66_72)"/>
<path d="M96.5305 77.2983C92.0402 69.0496 72.3571 71.5394 52.5672 82.8594C32.7772 94.1794 20.3744 110.043 24.8648 118.292C29.3551 126.54 49.0382 124.051 68.8281 112.731C88.6181 101.411 101.021 85.547 96.5305 77.2983Z" fill="url(#paint4_linear_66_72)"/>
<path d="M52.3041 82.6069C71.9352 71.4332 91.4894 68.9727 95.9433 77.1159C96.3255 77.8147 96.5634 78.5603 96.7365 79.3428C90.4146 73.5316 72.5498 76.4401 54.5384 86.6919C36.527 96.9437 24.7184 110.925 26.2459 119.465C25.684 118.904 25.187 118.306 24.8048 117.607C20.3509 109.464 32.673 93.7806 52.3041 82.6069Z" fill="url(#paint5_linear_66_72)"/>
<path d="M52.3094 82.6C69.4155 72.8626 86.4697 69.711 93.4996 74.4862C85.8065 70.8287 69.7443 74.0854 53.5454 83.3064C33.9123 94.4822 21.589 110.168 26.0434 118.313C26.0728 118.367 26.1022 118.42 26.1316 118.474C26.149 118.817 26.2165 119.096 26.2339 119.438C25.672 118.877 25.1749 118.279 24.7927 117.58C20.353 109.462 32.6763 93.7758 52.3094 82.6Z" fill="url(#paint6_linear_66_72)"/>
<path d="M96.8366 77.9983L99.2787 91.8923L113.196 94.3953L99.0233 98.0018L95.4089 112.148L92.9023 98.2562L78.9828 95.8175L93.1578 92.1467L96.8366 77.9983Z" fill="white"/>
<path d="M69.0624 57L71.1937 66.8665L81.0795 69.0389L71.1937 71.1661L69.0624 81.0326L66.8858 71.1661L57.0001 69.0389L66.8858 66.8665L69.0624 57Z" fill="url(#paint7_linear_66_72)"/>
<path d="M48.2178 22.3372L54.1275 24.3885C54.4793 18.3601 60.6835 17.3742 62.8318 13.207C64.5505 9.87321 62.1731 4.43917 61.2733 2.31371L54.227 1.09612C54.8491 1.66294 56.2599 3.73175 56.9266 7.47243C57.76 12.1483 54.9633 13.6338 51.1468 17.0465C48.0935 19.7766 47.9219 21.7112 48.2178 22.3372Z" fill="url(#paint8_linear_66_72)"/>
<path d="M4.39965 68.7102L13.807 68.1271C11.9472 75.7846 16.5038 80.1928 19.6814 81.2719L16.4764 86.4592C8.21453 82.2888 4.98279 72.8889 4.39965 68.7102Z" fill="url(#paint9_linear_66_72)"/>
<defs>
<linearGradient id="paint0_linear_66_72" x1="5.93794" y1="156.118" x2="60.3203" y2="42.7461" gradientUnits="userSpaceOnUse">
<stop stop-color="#FFD89F"/>
<stop offset="0.4489" stop-color="#FFBC50"/>
<stop offset="0.5466" stop-color="#FEB74D"/>
<stop offset="0.6677" stop-color="#FAA745"/>
<stop offset="0.8012" stop-color="#F48E37"/>
<stop offset="0.9426" stop-color="#EC6B25"/>
<stop offset="1" stop-color="#E85B1C"/>
</linearGradient>
<linearGradient id="paint1_linear_66_72" x1="8.2016" y1="154.442" x2="66.274" y2="33.4023" gradientUnits="userSpaceOnUse">
<stop stop-color="#FFE6C5"/>
<stop offset="0.0726269" stop-color="#FFE4C0"/>
<stop offset="0.1597" stop-color="#FFDFB1"/>
<stop offset="0.2543" stop-color="#FFD699"/>
<stop offset="0.3534" stop-color="#FFCA78"/>
<stop offset="0.4489" stop-color="#FFBC50"/>
<stop offset="0.5466" stop-color="#FEB74D"/>
<stop offset="0.6677" stop-color="#FAA745"/>
<stop offset="0.8012" stop-color="#F48E37"/>
<stop offset="0.9426" stop-color="#EC6B25"/>
<stop offset="1" stop-color="#E85B1C"/>
</linearGradient>
<linearGradient id="paint2_linear_66_72" x1="11.79" y1="142.288" x2="24.2893" y2="52.4865" gradientUnits="userSpaceOnUse">
<stop stop-color="#FFD89F"/>
<stop offset="0.4489" stop-color="#FFBC50"/>
<stop offset="0.5466" stop-color="#FEB74D"/>
<stop offset="0.6677" stop-color="#FAA745"/>
<stop offset="0.8012" stop-color="#F48E37"/>
<stop offset="0.9426" stop-color="#EC6B25"/>
<stop offset="1" stop-color="#E85B1C"/>
</linearGradient>
<linearGradient id="paint3_linear_66_72" x1="22.3287" y1="134.916" x2="31.5833" y2="68.3503" gradientUnits="userSpaceOnUse">
<stop stop-color="#FFE6C5"/>
<stop offset="0.4489" stop-color="#FFBC50"/>
<stop offset="0.5466" stop-color="#FEB74D"/>
<stop offset="0.6677" stop-color="#FAA745"/>
<stop offset="0.8012" stop-color="#F48E37"/>
<stop offset="0.9426" stop-color="#EC6B25"/>
<stop offset="1" stop-color="#E85B1C"/>
</linearGradient>
<linearGradient id="paint4_linear_66_72" x1="2.98051" y1="146.743" x2="29.6041" y2="31.9761" gradientUnits="userSpaceOnUse">
<stop stop-color="#FFD89F"/>
<stop offset="0.0160918" stop-color="#FFD391"/>
<stop offset="0.0517382" stop-color="#FFCB7A"/>
<stop offset="0.092301" stop-color="#FFC467"/>
<stop offset="0.14" stop-color="#FFBF5A"/>
<stop offset="0.2016" stop-color="#FFBD52"/>
<stop offset="0.3271" stop-color="#FFBC50"/>
<stop offset="0.4296" stop-color="#FAA946"/>
<stop offset="0.6829" stop-color="#F07F2F"/>
<stop offset="0.8817" stop-color="#EA6521"/>
<stop offset="1" stop-color="#E85B1C"/>
</linearGradient>
<linearGradient id="paint5_linear_66_72" x1="3.17231" y1="143.187" x2="15.4269" y2="64.824" gradientUnits="userSpaceOnUse">
<stop stop-color="#FFD89F"/>
<stop offset="0.0805635" stop-color="#FFCE84"/>
<stop offset="0.1705" stop-color="#FFC66D"/>
<stop offset="0.2678" stop-color="#FFC05D"/>
<stop offset="0.3767" stop-color="#FFBD53"/>
<stop offset="0.521" stop-color="#FFBC50"/>
<stop offset="0.6059" stop-color="#FEB74D"/>
<stop offset="0.7112" stop-color="#FAA745"/>
<stop offset="0.8272" stop-color="#F48E37"/>
<stop offset="0.9501" stop-color="#EC6B25"/>
<stop offset="1" stop-color="#E85B1C"/>
</linearGradient>
<linearGradient id="paint6_linear_66_72" x1="-0.512351" y1="142.615" x2="11.7454" y2="64.2378" gradientUnits="userSpaceOnUse">
<stop offset="0.2481" stop-color="#FFE6C5"/>
<stop offset="0.7529" stop-color="#FFBC50"/>
<stop offset="0.7967" stop-color="#FEB74D"/>
<stop offset="0.851" stop-color="#FAA745"/>
<stop offset="0.9109" stop-color="#F48E37"/>
<stop offset="0.9743" stop-color="#EC6B25"/>
<stop offset="1" stop-color="#E85B1C"/>
</linearGradient>
<linearGradient id="paint7_linear_66_72" x1="59.2188" y1="47.4434" x2="78.1387" y2="89.3456" gradientUnits="userSpaceOnUse">
<stop stop-color="#FFD89F"/>
<stop offset="0.0160918" stop-color="#FFD391"/>
<stop offset="0.0517382" stop-color="#FFCB7A"/>
<stop offset="0.092301" stop-color="#FFC467"/>
<stop offset="0.14" stop-color="#FFBF5A"/>
<stop offset="0.2016" stop-color="#FFBD52"/>
<stop offset="0.3271" stop-color="#FFBC50"/>
<stop offset="0.4296" stop-color="#FAA946"/>
<stop offset="0.6829" stop-color="#F07F2F"/>
<stop offset="0.8817" stop-color="#EA6521"/>
<stop offset="1" stop-color="#E85B1C"/>
</linearGradient>
<linearGradient id="paint8_linear_66_72" x1="68.0515" y1="-5.0979" x2="36.1522" y2="13.3444" gradientUnits="userSpaceOnUse">
<stop stop-color="#FFD89F"/>
<stop offset="0.0160918" stop-color="#FFD391"/>
<stop offset="0.0517382" stop-color="#FFCB7A"/>
<stop offset="0.092301" stop-color="#FFC467"/>
<stop offset="0.14" stop-color="#FFBF5A"/>
<stop offset="0.2016" stop-color="#FFBD52"/>
<stop offset="0.3271" stop-color="#FFBC50"/>
<stop offset="0.4296" stop-color="#FAA946"/>
<stop offset="0.6829" stop-color="#F07F2F"/>
<stop offset="0.8817" stop-color="#EA6521"/>
<stop offset="1" stop-color="#E85B1C"/>
</linearGradient>
<linearGradient id="paint9_linear_66_72" x1="15.1007" y1="62.6776" x2="1.56224" y2="81.366" gradientUnits="userSpaceOnUse">
<stop stop-color="#FFD89F"/>
<stop offset="0.0160918" stop-color="#FFD391"/>
<stop offset="0.0517382" stop-color="#FFCB7A"/>
<stop offset="0.092301" stop-color="#FFC467"/>
<stop offset="0.14" stop-color="#FFBF5A"/>
<stop offset="0.2016" stop-color="#FFBD52"/>
<stop offset="0.3271" stop-color="#FFBC50"/>
<stop offset="0.4296" stop-color="#FAA946"/>
<stop offset="0.6829" stop-color="#F07F2F"/>
<stop offset="0.8817" stop-color="#EA6521"/>
<stop offset="1" stop-color="#E85B1C"/>
</linearGradient>
</defs>
</svg>
