<svg width="30" height="31" viewBox="0 0 30 31" fill="none" xmlns="http://www.w3.org/2000/svg">
<path opacity="0.4" d="M6.66094 24.9875C6.52344 24.9875 6.37343 24.95 6.24843 24.8875L3.47343 23.5C3.16093 23.3375 2.96094 23.0125 2.96094 22.6625V19.1875C2.96094 18.675 3.38594 18.25 3.89844 18.25C4.41094 18.25 4.83594 18.675 4.83594 19.1875V22.075L7.09843 23.2C7.56093 23.4375 7.74843 24 7.52343 24.4625C7.33593 24.7875 7.01094 24.9875 6.66094 24.9875Z" fill="#F328A5"/>
<path d="M14.9993 29.1508C14.9243 29.1508 14.8493 29.1383 14.7868 29.1258C14.7118 29.1133 14.6368 29.0758 14.5618 29.0383L11.7993 27.6633C11.3368 27.4258 11.1493 26.8633 11.3743 26.4008C11.6118 25.9383 12.1743 25.7508 12.6368 25.9758L14.0618 26.6883V24.7383C14.0618 24.2258 14.4868 23.8008 14.9993 23.8008C15.5118 23.8008 15.9368 24.2258 15.9368 24.7383V26.6883L17.3618 25.9758C17.8243 25.7508 18.3868 25.9383 18.6243 26.4008C18.8618 26.8633 18.6743 27.4258 18.1993 27.6633L15.4368 29.0383C15.3618 29.0758 15.2868 29.1008 15.2118 29.1258C15.1368 29.1383 15.0743 29.1508 14.9993 29.1508Z" fill="#F328A5"/>
<path opacity="0.4" d="M23.3377 24.9877C23.0002 24.9877 22.6627 24.8002 22.5002 24.4752C22.2627 24.0127 22.4502 23.4502 22.9252 23.2127L25.1877 22.0877V19.2002C25.1877 18.6877 25.6127 18.2627 26.1252 18.2627C26.6377 18.2627 27.0627 18.6877 27.0627 19.2002V22.6752C27.0627 23.0252 26.8627 23.3502 26.5502 23.5127L23.7752 24.9002C23.6127 24.9502 23.4752 24.9877 23.3377 24.9877Z" fill="#F328A5"/>
<path d="M14.9993 18.7377C14.4868 18.7377 14.0618 18.3127 14.0618 17.8002V14.9127L11.7993 13.7877C11.3368 13.5502 11.1493 12.9877 11.3743 12.5252C11.6118 12.0627 12.1743 11.8752 12.6368 12.1002L14.9993 13.2752L17.3618 12.1002C17.8243 11.8752 18.3868 12.0502 18.6243 12.5252C18.8618 12.9877 18.6743 13.5502 18.1993 13.7877L15.9368 14.9127V17.8002C15.9368 18.3127 15.5118 18.7377 14.9993 18.7377Z" fill="#F328A5"/>
<path opacity="0.4" d="M3.88672 13.1756C3.37422 13.1756 2.94922 12.7506 2.94922 12.2381V8.78811V8.7756C2.94922 8.7006 2.96171 8.6256 2.97421 8.5631C2.99921 8.4631 3.03672 8.3756 3.08672 8.2881C3.12422 8.2256 3.16172 8.17559 3.21172 8.12559C3.26172 8.07559 3.32422 8.02561 3.38672 7.98811C3.41172 7.97561 3.44922 7.9506 3.47422 7.9381L6.23672 6.56309C6.69922 6.33809 7.26172 6.5131 7.49922 6.9881C7.73672 7.4506 7.54922 8.0131 7.07422 8.2506L5.97422 8.8006L7.07422 9.3506C7.53672 9.5881 7.72422 10.1506 7.49922 10.6131C7.27422 11.0756 6.69922 11.2631 6.23672 11.0381L4.81172 10.3256V12.2756C4.82422 12.7631 4.41172 13.1756 3.88672 13.1756Z" fill="#F328A5"/>
<path d="M17.7743 5.53788C17.6368 5.53788 17.4867 5.50038 17.3617 5.43788L14.9992 4.26288L12.6367 5.43788C12.1742 5.67538 11.6117 5.48788 11.3742 5.01288C11.1367 4.55038 11.3243 3.98787 11.7993 3.75037L14.5743 2.36289C14.8368 2.22539 15.1493 2.22539 15.4118 2.36289L18.1868 3.75037C18.6493 3.98787 18.8367 4.55038 18.6117 5.01288C18.4492 5.35038 18.1243 5.53788 17.7743 5.53788Z" fill="#F328A5"/>
<path opacity="0.4" d="M26.1125 13.1747C25.6 13.1747 25.175 12.7497 25.175 12.2372V10.2872L23.75 10.9997C23.2875 11.2372 22.725 11.0497 22.4875 10.5747C22.25 10.1122 22.4375 9.54974 22.9125 9.31224L24.0125 8.76224L22.9125 8.21224C22.45 7.97474 22.2625 7.41224 22.4875 6.94974C22.7125 6.48724 23.2875 6.29973 23.75 6.52473L26.5125 7.89974C26.5375 7.91224 26.575 7.92473 26.6 7.94973C26.675 7.98723 26.7375 8.04973 26.8 8.11223C26.8375 8.16223 26.875 8.21223 26.9125 8.26223C26.9625 8.34973 27 8.43723 27.025 8.53723C27.0375 8.61223 27.05 8.68723 27.05 8.74973V8.76224V12.2122C27.05 12.7622 26.625 13.1747 26.1125 13.1747Z" fill="#F328A5"/>
</svg>
