<svg width="30" height="31" viewBox="0 0 30 31" fill="none" xmlns="http://www.w3.org/2000/svg">
<path d="M24.1621 7.8125L16.3246 3.5875C15.4996 3.1375 14.4996 3.1375 13.6746 3.5875L5.83711 7.8125C5.26211 8.125 4.91211 8.725 4.91211 9.4125C4.91211 10.0875 5.26211 10.7 5.83711 11.0125L13.6746 15.2375C14.0871 15.4625 14.5496 15.575 14.9996 15.575C15.4496 15.575 15.9121 15.4625 16.3246 15.2375L24.1621 11.0125C24.7371 10.7 25.0871 10.1 25.0871 9.4125C25.0871 8.725 24.7371 8.125 24.1621 7.8125Z" fill="#F328A5"/>
<path opacity="0.4" d="M12.3875 16.7004L5.0875 13.0504C4.525 12.7754 3.875 12.8004 3.35 13.1254C2.8125 13.4629 2.5 14.0254 2.5 14.6504V21.5379C2.5 22.7254 3.1625 23.8004 4.225 24.3379L11.5125 27.9879C11.7625 28.1129 12.0375 28.1754 12.3125 28.1754C12.6375 28.1754 12.9625 28.0879 13.25 27.9129C13.7875 27.5879 14.1 27.0129 14.1 26.3879V19.5004C14.1125 18.3004 13.45 17.2254 12.3875 16.7004Z" fill="#F328A5"/>
<path opacity="0.4" d="M26.6504 13.1256C26.1129 12.8006 25.4629 12.7631 24.9129 13.0506L17.6254 16.7006C16.5629 17.2381 15.9004 18.3006 15.9004 19.5006V26.3881C15.9004 27.0131 16.2129 27.5881 16.7504 27.9131C17.0379 28.0881 17.3629 28.1756 17.6879 28.1756C17.9629 28.1756 18.2379 28.1131 18.4879 27.9881L25.7754 24.3381C26.8379 23.8006 27.5004 22.7381 27.5004 21.5381V14.6506C27.5004 14.0256 27.1879 13.4631 26.6504 13.1256Z" fill="#F328A5"/>
</svg>
