<svg width="30" height="31" viewBox="0 0 30 31" fill="none" xmlns="http://www.w3.org/2000/svg">
<path d="M5.625 21.3376C3.75 22.9126 3.125 27.5876 3.125 27.5876C3.125 27.5876 7.8 26.9626 9.375 25.0876C10.2625 24.0376 10.25 22.4251 9.2625 21.4501C8.77663 20.9863 8.13662 20.7184 7.46528 20.6976C6.79395 20.6768 6.1386 20.9047 5.625 21.3376Z" stroke="#FAA9DB" stroke-width="2" stroke-linecap="round" stroke-linejoin="round"/>
<path d="M15 19.4632L11.25 15.7132M15 19.4632C16.7461 18.7991 18.4211 17.9616 20 16.9632M15 19.4632V25.7132C15 25.7132 18.7875 25.0257 20 23.2132C21.35 21.1882 20 16.9632 20 16.9632M11.25 15.7132C11.9152 13.9875 12.7528 12.3333 13.75 10.7757C15.2065 8.44693 17.2345 6.52951 19.6413 5.20581C22.048 3.88212 24.7533 3.19616 27.5 3.2132C27.5 6.6132 26.525 12.5882 20 16.9632M11.25 15.7132H5C5 15.7132 5.6875 11.9257 7.5 10.7132C9.525 9.3632 13.75 10.7132 13.75 10.7132" stroke="#F328A5" stroke-width="2" stroke-linecap="round" stroke-linejoin="round"/>
</svg>
