<svg width="30" height="31" viewBox="0 0 30 31" fill="none" xmlns="http://www.w3.org/2000/svg">
<path opacity="0.4" d="M27.5 12.9004C26.9875 12.9004 26.5625 12.4754 26.5625 11.9629V9.46289C26.5625 6.23789 24.475 4.15039 21.25 4.15039H8.75C5.525 4.15039 3.4375 6.23789 3.4375 9.46289V11.9629C3.4375 12.4754 3.0125 12.9004 2.5 12.9004C1.9875 12.9004 1.5625 12.4754 1.5625 11.9629V9.46289C1.5625 5.16289 4.45 2.27539 8.75 2.27539H21.25C25.55 2.27539 28.4375 5.16289 28.4375 9.46289V11.9629C28.4375 12.4754 28.0125 12.9004 27.5 12.9004Z" fill="url(#paint0_linear_1781_1002)"/>
<path opacity="0.4" d="M21.25 29.1504H8.75C4.45 29.1504 1.5625 26.2629 1.5625 21.9629V19.4629C1.5625 18.9504 1.9875 18.5254 2.5 18.5254C3.0125 18.5254 3.4375 18.9504 3.4375 19.4629V21.9629C3.4375 25.1879 5.525 27.2754 8.75 27.2754H21.25C24.475 27.2754 26.5625 25.1879 26.5625 21.9629V19.4629C26.5625 18.9504 26.9875 18.5254 27.5 18.5254C28.0125 18.5254 28.4375 18.9504 28.4375 19.4629V21.9629C28.4375 26.2629 25.55 29.1504 21.25 29.1504Z" fill="url(#paint1_linear_1781_1002)"/>
<path d="M20.4984 10.9746L15.7984 8.43711C15.2984 8.17461 14.7109 8.17461 14.2109 8.43711L9.51094 10.9746C9.17344 11.1621 8.96094 11.5246 8.96094 11.9371C8.96094 12.3496 9.17344 12.7121 9.51094 12.8996L14.2109 15.4372C14.4609 15.5747 14.7359 15.6371 15.0109 15.6371C15.2859 15.6371 15.5609 15.5747 15.8109 15.4372L20.5109 12.8996C20.8484 12.7121 21.0609 12.3496 21.0609 11.9371C21.0484 11.5246 20.8359 11.1621 20.4984 10.9746Z" fill="url(#paint2_linear_1781_1002)"/>
<path d="M13.4238 16.3014L9.04883 14.1139C8.71133 13.9514 8.32381 13.9639 7.99881 14.1639C7.67381 14.3639 7.48633 14.7014 7.48633 15.0764V19.2139C7.48633 19.9264 7.88633 20.5764 8.52383 20.8889L12.8988 23.0764C13.0488 23.1514 13.2113 23.1889 13.3863 23.1889C13.5863 23.1889 13.7738 23.1389 13.9488 23.0264C14.2738 22.8264 14.4613 22.4889 14.4613 22.1139V17.9764C14.4613 17.2639 14.0738 16.6264 13.4238 16.3014Z" fill="url(#paint3_linear_1781_1002)"/>
<path d="M21.9859 14.1639C21.6609 13.9639 21.2734 13.9514 20.9359 14.1139L16.5609 16.3014C15.9234 16.6264 15.5234 17.2639 15.5234 17.9764V22.1139C15.5234 22.4889 15.7109 22.8264 16.0359 23.0264C16.2109 23.1389 16.3984 23.1889 16.5984 23.1889C16.7609 23.1889 16.9234 23.1514 17.0859 23.0764L21.4609 20.8889C22.0984 20.5639 22.4984 19.9264 22.4984 19.2139V15.0764C22.4984 14.7014 22.3109 14.3639 21.9859 14.1639Z" fill="url(#paint4_linear_1781_1002)"/>
<defs>
<linearGradient id="paint0_linear_1781_1002" x1="-1.0307" y1="-0.285995" x2="34.3342" y2="14.235" gradientUnits="userSpaceOnUse">
<stop stop-color="#F328A5"/>
<stop offset="1" stop-color="#9322D0"/>
</linearGradient>
<linearGradient id="paint1_linear_1781_1002" x1="-1.0307" y1="15.964" x2="34.3342" y2="30.485" gradientUnits="userSpaceOnUse">
<stop stop-color="#F328A5"/>
<stop offset="1" stop-color="#9322D0"/>
</linearGradient>
<linearGradient id="paint2_linear_1781_1002" x1="7.79339" y1="6.45705" x2="25.1747" y2="11.0726" gradientUnits="userSpaceOnUse">
<stop stop-color="#F328A5"/>
<stop offset="1" stop-color="#9322D0"/>
</linearGradient>
<linearGradient id="paint3_linear_1781_1002" x1="6.8133" y1="11.7872" x2="17.3787" y2="13.0894" gradientUnits="userSpaceOnUse">
<stop stop-color="#F328A5"/>
<stop offset="1" stop-color="#9322D0"/>
</linearGradient>
<linearGradient id="paint4_linear_1781_1002" x1="14.8504" y1="11.7872" x2="25.4158" y2="13.0894" gradientUnits="userSpaceOnUse">
<stop stop-color="#F328A5"/>
<stop offset="1" stop-color="#9322D0"/>
</linearGradient>
</defs>
</svg>
