<svg width="46" height="46" viewBox="0 0 46 46" fill="none" xmlns="http://www.w3.org/2000/svg">
<g id="shiba-inu-shib-logo" clip-path="url(#clip0_1417_4734)">
<g id="Group_938">
<g id="Group_931">
<path id="Path_8573" d="M33.7036 4.00816C32.5382 5.17363 31.4704 6.4368 30.5213 7.78371L30.2212 7.68601C28.4905 7.12072 26.6969 6.77178 24.8894 6.65314C24.345 6.61127 22.3142 6.61127 21.6512 6.65314C19.6482 6.78574 18.1129 7.08583 16.3682 7.69299C16.2984 7.7209 16.2356 7.74184 16.1728 7.76278C15.1888 6.42284 14.0931 5.16665 12.8857 4.01514C18.6782 1.04913 25.4546 0.693204 31.5193 3.03112C32.1683 3.27538 32.8034 3.56151 33.4245 3.86858L33.7036 4.00816Z" fill="#F00500"/>
<path id="Path_8574" d="M44.5069 30.4797C43.6276 32.9852 42.3086 35.3091 40.5987 37.333C39.6706 38.4217 38.6447 39.4196 37.542 40.3269C34.9598 42.4066 31.945 43.8931 28.7277 44.6747C25.1685 45.5331 21.4558 45.5331 17.8965 44.6747C14.6723 43.8931 11.6644 42.4066 9.08226 40.3269C7.9796 39.4196 6.95371 38.4217 6.02552 37.333C1.10543 31.5196 -0.388041 23.5358 2.11737 16.3406C2.59193 15.0076 3.18513 13.7235 3.89697 12.5022C4.22498 11.9439 4.62976 11.3158 4.82516 11.0576C5.49513 13.9399 6.31863 16.4732 6.6257 17.3874C6.60476 17.4363 6.57685 17.4921 6.54894 17.541C4.92286 20.835 4.04353 24.0103 3.83417 27.3881C3.83417 27.43 3.82718 27.4788 3.82718 27.5207C3.77135 28.5326 3.79927 29.0142 3.96676 29.6493C4.49017 31.6382 6.10229 33.8296 8.62864 35.9791C12.7671 39.4964 18.3781 42.0367 22.6282 42.3298C27.0598 42.6299 33.599 40.0408 37.9538 36.2582C38.6377 35.6511 39.2797 35.009 39.8799 34.3251C40.3126 33.8226 40.9547 32.9572 40.9058 32.9572C40.8919 32.9572 40.9058 32.9433 40.9337 32.9293C40.9547 32.9154 40.9756 32.8944 40.9616 32.8805C40.9547 32.8735 40.9686 32.8526 40.9896 32.8456C41.0105 32.8386 41.0245 32.8246 41.0175 32.8107C41.0105 32.7967 41.0175 32.7828 41.0454 32.7758C41.0663 32.7688 41.0733 32.7479 41.0663 32.7339C41.0593 32.72 41.0663 32.706 41.0803 32.706C41.0942 32.706 41.1082 32.6851 41.1082 32.6711C41.1082 32.6571 41.1222 32.6362 41.1361 32.6362C41.1501 32.6362 41.164 32.6223 41.164 32.6083C41.185 32.5525 41.2199 32.4966 41.2548 32.4478C41.3594 32.2873 41.7782 31.5405 41.834 31.4149C42.2318 30.5146 42.483 29.7121 42.6017 28.9095C42.6575 28.5257 42.6924 27.8208 42.6645 27.6533C42.6575 27.6254 42.6575 27.5765 42.6505 27.4998C42.6366 27.3602 42.6296 27.1508 42.6156 26.9415C42.6017 26.6274 42.5738 26.1878 42.5528 25.9714C42.2527 22.803 41.4432 20.2139 39.9078 17.4712C39.845 17.3665 39.7892 17.2618 39.7543 17.1781C39.7403 17.1571 39.7334 17.1362 39.7264 17.1222C39.9427 16.4732 40.829 13.7584 41.5339 10.6528L41.5479 10.6668L41.6525 10.8064C41.834 11.0506 42.3155 11.7764 42.5319 12.1254C43.5159 13.7305 44.2836 15.4543 44.8279 17.2548C46.0911 21.5887 45.9864 26.2087 44.5069 30.4797Z" fill="#F00500"/>
<path id="Path_8575" d="M35.4484 22.1399C35.4275 22.2515 35.0995 22.5865 34.7715 22.8308C33.8084 23.5356 32.0846 24.1916 30.3329 24.5057C29.3349 24.6871 28.337 24.7151 28.0369 24.5685C27.8415 24.4708 27.8135 24.394 27.8833 24.1428C28.0299 23.6194 28.5044 23.0471 29.2442 22.5097C29.6211 22.2376 31.1494 21.3094 31.8613 20.9186C33.0337 20.2765 33.9828 19.8927 34.6249 19.8019C34.8273 19.774 35.0715 19.7671 35.1483 19.8019C35.2739 19.8508 35.4135 20.2207 35.4693 20.6673C35.4973 20.9046 35.4833 21.9514 35.4484 22.1399Z" fill="black"/>
<path id="Path_8576" d="M19.006 24.4496C18.9642 24.5334 18.7548 24.6241 18.5175 24.659C18.2802 24.6939 17.5544 24.673 17.1427 24.6241C15.6632 24.4287 14.0929 23.9751 12.9484 23.4168C12.3064 23.1027 11.8457 22.7887 11.5038 22.4467L11.3084 22.2443L11.2874 21.9791C11.2525 21.5185 11.2595 20.7927 11.3154 20.5345C11.3503 20.3182 11.427 20.1088 11.5317 19.9204C11.5875 19.8506 11.5875 19.8506 11.8388 19.8506C12.1458 19.8506 12.4041 19.8994 12.8228 20.032C13.6812 20.2972 14.9583 20.9393 16.5146 21.8745C17.7987 22.6421 18.2802 23.019 18.6501 23.5354C18.9014 23.8564 19.0689 24.3101 19.006 24.4496Z" fill="black"/>
<path id="Path_8577" d="M28.8883 34.164C28.8883 34.1849 28.8046 34.5199 28.6999 34.9177C28.5952 35.3155 28.5115 35.6365 28.5115 35.6505C28.4347 35.6575 28.3649 35.6644 28.2882 35.6575H28.0648L27.7578 36.3833C27.5903 36.781 27.4367 37.1509 27.4158 37.2068L27.3739 37.3045L27.2274 37.0672L27.0808 36.8299V34.8968L27.025 34.9107C26.9063 34.9386 26.0619 35.0503 25.692 35.0852C24.1637 35.2387 22.6283 35.2038 21.1069 34.9875C20.8627 34.9526 20.6533 34.9247 20.6463 34.9317C20.6393 34.9386 20.6463 35.3853 20.6603 35.9366L20.6812 36.9276L20.5626 37.1091C20.4998 37.2068 20.437 37.2905 20.437 37.2975C20.416 37.3184 20.3462 37.2068 20.1857 36.8857C20.0112 36.5507 19.8856 36.1948 19.7949 35.8249L19.746 35.6226L19.5297 35.6365L19.3134 35.6575L19.2575 35.3992C19.2296 35.2597 19.1947 35.0433 19.1808 34.9247L19.1598 34.7014L18.9784 34.5408C18.8737 34.4501 18.769 34.3594 18.7481 34.3454C18.7132 34.3175 18.6992 34.2687 18.6992 34.2268V34.143L19.5716 34.15L20.4439 34.157L20.4718 34.2477L20.4998 34.3385L20.7999 34.3524C20.9674 34.3594 21.4977 34.3733 21.9723 34.3873L22.8447 34.4082L23.068 34.0593L23.2983 33.7104H23.5914L23.5844 32.9846L23.5774 32.2588L23.1936 32.0913C21.9583 31.5469 21.2325 30.9258 20.9604 30.1721C20.9045 30.0185 20.9045 29.9627 20.8906 29.2648C20.8836 28.5739 20.8836 28.5111 20.9325 28.3576C21.0302 28.0086 21.3023 27.7365 21.6513 27.6457C21.7699 27.6108 22.084 27.6108 23.731 27.6108L25.6711 27.6178L25.8874 27.7225C26.1457 27.8481 26.2643 27.9388 26.4108 28.1343C26.5783 28.3576 26.6272 28.532 26.6272 28.9578C26.6272 29.5649 26.5853 30.0883 26.5225 30.2977C26.4318 30.5838 26.2922 30.856 26.1177 31.1003C25.7688 31.5469 25.1337 31.9936 24.5545 32.1959L24.387 32.2588L24.394 32.9915L24.4009 33.7243L24.5545 33.7383L24.708 33.7522L24.9174 34.0663L25.1198 34.3803H26.0549C26.5714 34.3803 27.025 34.3873 27.0669 34.3943C27.1366 34.4082 27.1506 34.4013 27.2204 34.2826L27.3041 34.157H28.1067C28.7069 34.1291 28.8883 34.143 28.8883 34.164Z" fill="black"/>
<path id="Path_8578" d="M25.203 36.1669C25.0704 36.2437 24.9797 36.2786 24.9587 36.2646C24.9378 36.2577 24.8401 36.1739 24.7354 36.0971L24.547 35.9436L24.3516 36.153C23.9258 36.6136 23.9119 36.6345 23.7863 36.6415C23.5909 36.6624 23.549 36.6275 23.3117 36.2716C23.1861 36.0902 23.0884 35.9366 23.0884 35.9366C23.0884 35.9366 22.9977 35.9227 22.893 35.9157L22.6976 35.8948L22.6068 36.0832L22.5161 36.2716L22.3556 36.2228C22.23 36.1809 22.1044 36.132 21.9857 36.0762L21.7764 35.9715V35.5737L23.6327 35.5807L25.4891 35.5877L25.4961 35.7761C25.5031 35.9994 25.5101 35.9925 25.203 36.1669Z" fill="black"/>
</g>
<path id="Path_8579" d="M42.6503 27.6534C42.6433 27.6255 42.6433 27.5766 42.6363 27.4999C40.9614 27.3184 36.1809 27.2068 31.7423 30.8707C31.7423 30.8707 30.3116 24.3105 23.612 24.3105C16.9123 24.3105 14.4278 30.8707 14.4278 30.8707C10.6732 26.8299 5.64839 27.123 3.83389 27.3882C3.83389 27.4301 3.82691 27.4789 3.82691 27.5208C3.77108 28.5328 3.799 29.0143 3.96649 29.6494C4.4899 31.6383 6.10202 33.8297 8.62836 35.9792C12.7668 39.4965 18.3778 42.0368 22.6279 42.3299C27.0595 42.63 33.5987 40.0409 37.9535 36.2583C38.6374 35.6512 39.2795 35.0091 39.8797 34.3252C40.3123 33.8227 40.9544 32.9573 40.9055 32.9573C40.8916 32.9573 40.9055 32.9434 40.9335 32.9294C40.9544 32.9155 40.9753 32.8945 40.9614 32.8806C40.9544 32.8736 40.9684 32.8527 40.9893 32.8457C41.0102 32.8387 41.0242 32.8247 41.0172 32.8108C41.0102 32.7968 41.0172 32.7829 41.0451 32.7759C41.0661 32.7689 41.073 32.748 41.0661 32.734C41.0591 32.7201 41.0661 32.7061 41.08 32.7061C41.094 32.7061 41.1079 32.6852 41.1079 32.6712C41.1079 32.6573 41.1219 32.6363 41.1358 32.6363C41.1498 32.6363 41.1638 32.6224 41.1638 32.6084C41.1847 32.5526 41.2196 32.4967 41.2545 32.4479C41.3592 32.2874 41.7779 31.5406 41.8337 31.415C42.2315 30.5147 42.4828 29.7122 42.6014 28.9096C42.6433 28.5258 42.6782 27.8209 42.6503 27.6534ZM25.2031 36.1676C25.0705 36.2444 24.9798 36.2793 24.9589 36.2653C24.9379 36.2583 24.8402 36.1746 24.7355 36.0978L24.5471 35.9443L24.3517 36.1537C23.926 36.6143 23.912 36.6352 23.7864 36.6422C23.591 36.6631 23.5491 36.6282 23.3119 36.2723C23.1862 36.0908 23.0885 35.9373 23.0885 35.9373C23.0885 35.9373 22.9978 35.9234 22.8931 35.9164L22.6977 35.8954L22.607 36.0839L22.5163 36.2723L22.3558 36.2234C22.2301 36.1816 22.1045 36.1327 21.9859 36.0769L21.7765 35.9722V35.5744L23.6329 35.5814L25.4893 35.5884L25.4962 35.7768C25.5032 36.0001 25.5102 35.9931 25.2031 36.1676ZM28.6926 34.9114C28.5879 35.3092 28.5041 35.6302 28.5041 35.6442C28.4274 35.6512 28.3576 35.6582 28.2808 35.6512H28.0575L27.7574 36.384C27.5899 36.7818 27.4364 37.1516 27.4154 37.2075L27.3736 37.3052L27.227 37.0679L27.0804 36.8306V34.8975L27.0246 34.9114C26.906 34.9393 26.0615 35.051 25.6917 35.0859C24.1633 35.2394 22.6279 35.2045 21.1065 34.9882C20.8623 34.9533 20.6529 34.9254 20.6459 34.9324C20.639 34.9393 20.6459 35.386 20.6599 35.9373L20.6808 36.9283L20.5622 37.1098C20.4994 37.2075 20.4366 37.2912 20.4366 37.2982C20.4156 37.3191 20.3459 37.2075 20.1853 36.8864C20.0109 36.5515 19.8853 36.1955 19.7945 35.8256L19.7457 35.6233L19.5293 35.6372L19.313 35.6582L19.2571 35.3999C19.2292 35.2604 19.1943 35.044 19.1804 34.9254L19.1595 34.7021L18.978 34.5415C18.8733 34.4508 18.7686 34.3601 18.7477 34.3461C18.7128 34.3182 18.6988 34.2694 18.6988 34.2275V34.1437L19.5712 34.1507L20.4436 34.1577L20.4715 34.2484L20.4994 34.3392L20.7995 34.3531C20.967 34.3601 21.4974 34.3741 21.9719 34.388L22.8443 34.4089L23.0676 34.06L23.2979 33.7111H23.591L23.584 32.9853L23.5771 32.2595L23.1932 32.092C21.958 31.5476 21.2322 30.9265 20.96 30.1728C20.9042 30.0192 20.9042 29.9634 20.8902 29.2655C20.8832 28.5746 20.8832 28.5118 20.9321 28.3583C21.0298 28.0093 21.302 27.7372 21.6509 27.6464C21.7695 27.6115 22.0836 27.6115 23.7306 27.6115L25.6707 27.6185L25.8871 27.7232C26.1453 27.8488 26.2639 27.9395 26.4105 28.135C26.578 28.3583 26.6268 28.5327 26.6268 28.9585C26.6268 29.5656 26.5849 30.089 26.5221 30.2984C26.4314 30.5845 26.2918 30.8567 26.1174 31.101C25.7684 31.5476 25.1333 31.9943 24.5541 32.1966L24.3866 32.2595L24.3936 32.9922L24.4006 33.725L24.5541 33.739L24.7076 33.7529L24.917 34.067L25.1194 34.381H26.0545C26.571 34.381 27.0246 34.388 27.0665 34.395C27.1363 34.4089 27.1502 34.402 27.22 34.2833L27.3038 34.1577H28.1063C28.7274 34.1577 28.9089 34.1647 28.9089 34.1856C28.888 34.1786 28.7972 34.5206 28.6926 34.9114Z" fill="white"/>
<path id="Path_8582" d="M42.5943 26.9415C42.5804 26.6275 42.5524 26.1878 42.5315 25.9715C42.2314 22.8031 41.4219 20.2139 39.8865 17.4712C39.8237 17.3665 39.7679 17.2619 39.733 17.1781C39.719 17.1572 39.712 17.1362 39.7051 17.1223C39.9214 16.4732 40.8077 13.7585 41.5126 10.6529C42.4687 6.43766 43.0759 1.51059 41.2195 0.031075C41.2195 0.031075 38.0092 -0.206206 33.7102 4.00902C32.5448 5.17449 31.477 6.43766 30.5279 7.78458L30.2278 7.68687C28.497 7.12158 26.7035 6.77264 24.896 6.654C24.3516 6.61213 22.3208 6.61213 21.6578 6.654C19.6548 6.7866 18.1195 7.08669 16.3748 7.69385C16.305 7.72177 16.2422 7.7427 16.1794 7.76364C15.1953 6.4237 14.0997 5.16751 12.8923 4.016C8.41889 -0.220163 5.08998 0.0240957 5.08998 0.0240957C3.12194 1.55246 3.79191 6.70286 4.81082 11.0577C5.48079 13.9399 6.30429 16.4732 6.61136 17.3875C6.59043 17.4363 6.56251 17.4922 6.5346 17.541C4.90853 20.835 4.02919 24.0104 3.81982 27.3882C5.6413 27.123 10.6591 26.8229 14.4207 30.8706C14.4207 30.8706 16.9052 24.3105 23.6049 24.3105C30.3046 24.3105 31.7352 30.8706 31.7352 30.8706C36.1738 27.2067 40.9543 27.3254 42.6292 27.4998C42.6222 27.3603 42.6083 27.1509 42.5943 26.9415ZM7.93037 14.7564C7.93037 14.7564 5.32028 8.23122 5.99024 4.50452C6.10191 3.87642 6.31128 3.32509 6.63928 2.90636C6.63928 2.90636 9.59831 3.19947 14.3718 8.5034C14.3718 8.5034 13.4646 8.94307 12.2503 9.87823C12.2503 9.87823 12.2433 9.88521 12.2363 9.88521C10.9173 10.8971 9.22843 12.5023 7.93037 14.7564ZM19.0058 24.4501C18.9639 24.5338 18.7546 24.6245 18.5173 24.6594C18.28 24.6943 17.5542 24.6734 17.1425 24.6245C15.6629 24.4291 14.0927 23.9755 12.9482 23.4172C12.3061 23.1032 11.8455 22.7891 11.5035 22.4471L11.3081 22.2448L11.2872 21.9796C11.2523 21.519 11.2593 20.7932 11.3151 20.5349C11.35 20.3186 11.4268 20.1092 11.5315 19.9208C11.5873 19.851 11.5873 19.851 11.8385 19.851C12.1456 19.851 12.4038 19.8999 12.8225 20.0325C13.6809 20.2977 14.9581 20.9397 16.5144 21.8749C17.7985 22.6425 18.28 23.0194 18.6499 23.5358C18.9011 23.8569 19.0686 24.3105 19.0058 24.4501ZM35.448 22.1401C35.427 22.2517 35.099 22.5867 34.771 22.831C33.8079 23.5358 32.0842 24.1919 30.3325 24.5059C29.3345 24.6874 28.3365 24.7153 28.0364 24.5687C27.841 24.471 27.8131 24.3942 27.8829 24.143C28.0295 23.6196 28.504 23.0473 29.2438 22.51C29.6206 22.2378 31.149 21.3096 31.8608 20.9188C33.0333 20.2767 33.9824 19.8929 34.6245 19.8022C34.8269 19.7742 35.0711 19.7673 35.1479 19.8022C35.2735 19.851 35.4131 20.2209 35.4689 20.6675C35.4968 20.9048 35.4829 21.9516 35.448 22.1401ZM34.2895 9.87823L34.2755 9.87125C33.1031 8.93609 32.2237 8.49642 32.2237 8.49642C36.8368 3.19249 39.6911 2.89938 39.6911 2.89938C40.0052 3.32509 40.2076 3.86944 40.3192 4.49754C40.9682 8.22425 38.4489 14.7564 38.4489 14.7564C37.3951 12.8791 35.9784 11.2182 34.2895 9.87823Z" fill="#FFA409"/>
<g id="Group_934">
<g id="Group_933">
<g id="Group_932">
<path id="Path_8585" d="M40.3266 4.49757C39.7822 4.42778 37.207 4.41382 34.2899 9.87826L34.2759 9.87128C33.1035 8.93612 32.2241 8.49645 32.2241 8.49645C36.8371 3.19252 39.6915 2.89941 39.6915 2.89941C40.0125 3.32512 40.2149 3.86947 40.3266 4.49757Z" fill="#FF9300"/>
</g>
<path id="Path_8586" d="M38.4559 14.7562C37.3951 12.8719 35.9854 11.2179 34.2896 9.87796C37.2067 4.41352 39.7749 4.42747 40.3263 4.49726C40.9753 8.23095 38.4559 14.7562 38.4559 14.7562Z" fill="#FF8300"/>
<path id="Path_8587" d="M40.4309 4.51801C40.396 4.51103 40.3611 4.50405 40.3262 4.49707L40.4309 4.51801Z" fill="#FF8300"/>
</g>
</g>
<g id="Group_937">
<g id="Group_936">
<g id="Group_935">
<path id="Path_8590" d="M14.372 8.49645C14.372 8.49645 13.4647 8.93612 12.2504 9.87128C12.2504 9.87128 12.2434 9.87826 12.2364 9.87826C9.2146 4.40685 6.55566 4.42778 5.9834 4.49757C6.09506 3.86947 6.30443 3.31815 6.63243 2.89941C6.63941 2.89941 9.59844 3.19252 14.372 8.49645Z" fill="#FF9300"/>
</g>
<path id="Path_8591" d="M12.2434 9.87796C10.9174 10.8969 9.22853 12.495 7.93047 14.7562C7.93047 14.7562 5.32038 8.23095 5.99034 4.49726C6.55563 4.42747 9.22155 4.41352 12.2434 9.87796Z" fill="#FF8300"/>
<path id="Path_8592" d="M5.99057 4.49707C5.95567 4.50405 5.9138 4.51103 5.87891 4.51801L5.99057 4.49707Z" fill="#FF8300"/>
</g>
</g>
<path id="Path_8593" d="M31.3938 18.3782C31.3938 18.3782 29.1605 18.5178 29.4397 16.773C29.7188 15.0283 31.4635 14.819 31.9521 14.8888C32.4406 14.9585 34.3947 15.6564 34.0457 17.122C33.6968 18.5875 33.2083 18.3084 32.9291 18.3782C32.6499 18.448 31.3938 18.3782 31.3938 18.3782Z" fill="white"/>
<path id="Path_8594" d="M14.9235 18.3782C14.9235 18.3782 12.6903 18.5178 12.9695 16.773C13.2486 15.0283 14.9933 14.819 15.4818 14.8888C15.9704 14.9585 17.9244 15.6564 17.5755 17.122C17.2266 18.5875 16.738 18.3084 16.4589 18.3782C16.1797 18.448 14.9235 18.3782 14.9235 18.3782Z" fill="white"/>
</g>
</g>
<defs>
<clipPath id="clip0_1417_4734">
<rect width="44.7833" height="45.2927" fill="white" transform="translate(0.913086 0.0234375)"/>
</clipPath>
</defs>
</svg>
