<svg width="55" height="43" viewBox="0 0 55 43" fill="none" xmlns="http://www.w3.org/2000/svg">
<g id="solana-sol-logo" clip-path="url(#clip0_1417_4802)">
<path id="Vector" d="M9.15588 32.5973C9.48409 32.2691 9.93539 32.0776 10.414 32.0776H53.8208C54.614 32.0776 55.0106 33.0349 54.4499 33.5956L45.8752 42.1703C45.547 42.4985 45.0957 42.69 44.617 42.69H1.21028C0.41709 42.69 0.0204944 41.7327 0.581199 41.172L9.15588 32.5973Z" fill="url(#paint0_linear_1417_4802)"/>
<path id="Vector_2" d="M9.15539 0.582178C9.49728 0.25396 9.94858 0.0625 10.4136 0.0625H53.8203C54.6135 0.0625 55.0101 1.0198 54.4494 1.58051L45.8747 10.1552C45.5465 10.4834 45.0952 10.6749 44.6165 10.6749H1.20979C0.416602 10.6749 0.0200061 9.71756 0.580711 9.15686L9.15539 0.582178Z" fill="url(#paint1_linear_1417_4802)"/>
<path id="Vector_3" d="M45.8752 16.487C45.547 16.1587 45.0957 15.9673 44.617 15.9673H1.21028C0.41709 15.9673 0.0204944 16.9246 0.581199 17.4853L9.15588 26.06C9.48409 26.3882 9.93539 26.5796 10.414 26.5796H53.8208C54.614 26.5796 55.0106 25.6223 54.4499 25.0616L45.8752 16.487Z" fill="url(#paint2_linear_1417_4802)"/>
</g>
<defs>
<linearGradient id="paint0_linear_1417_4802" x1="49.6742" y1="-5.05952" x2="19.6332" y2="52.4809" gradientUnits="userSpaceOnUse">
<stop stop-color="#00FFA3"/>
<stop offset="1" stop-color="#DC1FFF"/>
</linearGradient>
<linearGradient id="paint1_linear_1417_4802" x1="36.5382" y1="-11.9176" x2="6.49723" y2="45.6228" gradientUnits="userSpaceOnUse">
<stop stop-color="#00FFA3"/>
<stop offset="1" stop-color="#DC1FFF"/>
</linearGradient>
<linearGradient id="paint2_linear_1417_4802" x1="43.0646" y1="-8.51062" x2="13.0237" y2="49.0299" gradientUnits="userSpaceOnUse">
<stop stop-color="#00FFA3"/>
<stop offset="1" stop-color="#DC1FFF"/>
</linearGradient>
<clipPath id="clip0_1417_4802">
<rect width="54.3884" height="42.6272" fill="white" transform="translate(0.321289 0.0625)"/>
</clipPath>
</defs>
</svg>
