<svg width="19" height="19" viewBox="0 0 19 19" fill="none" xmlns="http://www.w3.org/2000/svg">
<g id="tron-trx-logo" clip-path="url(#clip0_1417_4864)">
<g id="tron">
<path id="Vector" d="M17.3197 6.02698C16.4764 5.2483 15.3098 4.05921 14.3597 3.21588L14.3034 3.17652C14.2099 3.1014 14.1044 3.04249 13.9914 3.00223C11.7004 2.57495 1.03783 0.581872 0.829813 0.607172C0.771524 0.615336 0.715809 0.636469 0.666769 0.669017L0.613358 0.711183C0.547591 0.777975 0.497639 0.858666 0.467181 0.947316L0.453125 0.98386V1.18345V1.21437C1.65347 4.55677 6.39299 15.506 7.32627 18.0754C7.3825 18.2497 7.48932 18.5814 7.68891 18.5982H7.73388C7.84071 18.5982 8.2961 17.9967 8.2961 17.9967C8.2961 17.9967 16.4371 8.12406 17.2607 7.07271C17.3673 6.94321 17.4615 6.8039 17.5418 6.65667C17.5623 6.54147 17.5527 6.42292 17.5137 6.31257C17.4748 6.20221 17.408 6.10382 17.3197 6.02698ZM10.3848 7.17672L13.8593 4.29534L15.8973 6.17316L10.3848 7.17672ZM9.03543 6.98838L3.0534 2.08581L12.732 3.87086L9.03543 6.98838ZM9.57516 8.27305L15.6977 7.28636L8.69809 15.7197L9.57516 8.27305ZM2.24099 2.57494L8.53505 7.91604L7.62425 15.7253L2.24099 2.57494Z" fill="#FF060A"/>
</g>
</g>
<defs>
<clipPath id="clip0_1417_4864">
<rect width="17.9911" height="17.9911" fill="white" transform="translate(0.0175781 0.606934)"/>
</clipPath>
</defs>
</svg>
